<?xml version="1.0" encoding="UTF-8" standalone="no"?><!-- Generator: Gravit.io --><svg xmlns="http://www.w3.org/2000/svg" xmlns:xlink="http://www.w3.org/1999/xlink" style="isolation:isolate" viewBox="0 0 150 150" width="150pt" height="150pt"><path d=" M 18.768 86.747 Q 46.304 94.081 72.675 93.769 Q 99.047 93.457 132.129 86.279 Q 132.44 84.69 131.273 82.707 C 130.106 80.724 129.232 81.132 128.123 79.966 C 127.015 78.799 127.161 72.908 120.92 69.641 C 114.679 66.375 113.308 66.929 111.791 66.987 C 110.275 67.046 109.808 67.629 108.233 66.812 C 106.658 65.996 107.125 63.342 104.267 61.709 C 101.409 60.076 100.359 58.909 95.809 60.192 C 91.26 61.475 89.918 64.625 89.51 66.812 C 89.101 69 89.86 71.333 90.21 72.383 C 90.56 73.433 90.501 75.474 89.043 76.233 C 87.585 76.991 86.302 76.641 83.852 77.166 C 81.402 77.691 81.11 79.149 79.186 78.566 C 77.261 77.982 76.794 76.378 75.919 75.153 C 75.044 73.929 72.07 69.729 67.753 68.912 C 63.437 68.096 59.237 68.562 55.738 71.362 C 52.238 74.162 53.288 75.037 52.413 75.387 C 51.538 75.737 50.313 76.728 49.38 76.612 C 48.446 76.495 47.105 75.153 44.48 75.387 C 41.855 75.62 40.835 77.341 38.618 77.399 C 36.402 77.457 36.11 75.183 33.835 74.074 C 31.56 72.966 28.527 70.575 23.278 73.783 C 18.028 76.991 17.678 81.307 17.795 82.707 Q 17.912 84.107 18.768 86.747 Z " fill="rgb(0,0,0)"/><path d=" M 125.107 129.308 C 128.291 125.774 131.627 120.938 133.831 114.895 Q 138.052 103.316 138.685 101.206 Q 138.987 99.879 139.891 99.336 Q 140.796 98.793 142.786 98.854 L 146.223 98.854 Q 147.791 98.733 148.515 97.768 C 149.239 96.803 150.203 95.054 149.962 93.245 C 149.721 91.436 149.178 90.501 148.274 90.26 Q 147.369 90.019 138.142 89.959 Q 117.337 95.658 104.854 96.984 C 92.371 98.311 67.887 99.366 53.836 97.768 Q 39.785 96.17 12.285 90.26 L 2.335 90.26 Q -0.318 90.773 0.043 94.391 Q 0.405 98.009 3.059 98.854 L 8.064 98.854 Q 8.908 98.974 9.692 99.336 Q 10.476 99.698 11.381 101.507 Q 15.934 115.377 18.768 120.383 C 20.77 123.919 22.803 127.379 25.354 130.255 L 18.02 145.267 L 18.02 145.267 C 17.223 146.898 17.901 148.869 19.531 149.666 C 21.162 150.463 23.133 149.785 23.93 148.155 L 23.93 148.155 L 30.537 134.63 Q 34.735 137.124 41.835 138.806 L 108.442 138.806 Q 114.231 137.72 117.729 135.67 C 118.35 135.306 119.126 134.781 120.005 134.098 L 125.544 147.312 L 125.544 147.312 C 126.244 148.98 128.166 149.767 129.835 149.068 C 131.504 148.368 132.291 146.446 131.591 144.777 L 131.591 144.777 L 125.107 129.308 Z " fill-rule="evenodd" fill="rgb(255,255,255)"/><path d=" M 125.107 129.308 C 128.291 125.774 131.627 120.938 133.831 114.895 Q 138.052 103.316 138.685 101.206 Q 138.987 99.879 139.891 99.336 Q 140.796 98.793 142.786 98.854 L 146.223 98.854 Q 147.791 98.733 148.515 97.768 C 149.239 96.803 150.203 95.054 149.962 93.245 C 149.721 91.436 149.178 90.501 148.274 90.26 Q 147.369 90.019 138.142 89.959 Q 117.337 95.658 104.854 96.984 C 92.371 98.311 67.887 99.366 53.836 97.768 Q 39.785 96.17 12.285 90.26 L 2.335 90.26 Q -0.318 90.773 0.043 94.391 Q 0.405 98.009 3.059 98.854 L 8.064 98.854 Q 8.908 98.974 9.692 99.336 Q 10.476 99.698 11.381 101.507 Q 15.934 115.377 18.768 120.383 C 20.77 123.919 22.803 127.379 25.354 130.255 L 18.02 145.267 L 18.02 145.267 C 17.223 146.898 17.901 148.869 19.531 149.666 C 21.162 150.463 23.133 149.785 23.93 148.155 L 23.93 148.155 L 30.537 134.63 Q 34.735 137.124 41.835 138.806 L 108.442 138.806 Q 114.231 137.72 117.729 135.67 C 118.35 135.306 119.126 134.781 120.005 134.098 L 125.544 147.312 L 125.544 147.312 C 126.244 148.98 128.166 149.767 129.835 149.068 C 131.504 148.368 132.291 146.446 131.591 144.777 L 131.591 144.777 L 125.107 129.308 Z " fill-rule="evenodd" fill="rgb(0,0,0)"/><circle vector-effect="non-scaling-stroke" cx="54.95595199326979" cy="51.87724036709703" r="9.937404748007605" fill="rgb(0,0,0)"/><circle vector-effect="non-scaling-stroke" cx="72.80129150553698" cy="57.61574170045353" r="5.388592715468903" fill="rgb(0,0,0)"/><circle vector-effect="non-scaling-stroke" cx="70.98176669252152" cy="36.90115152150808" r="5.038684097581196" fill="rgb(0,0,0)"/></svg>