<?xml version="1.0" encoding="UTF-8" standalone="no"?><!-- Generator: Gravit.io --><svg xmlns="http://www.w3.org/2000/svg" xmlns:xlink="http://www.w3.org/1999/xlink" style="isolation:isolate" viewBox="0 0 150 150" width="150pt" height="150pt"><path d=" M 74.505 36.355 L 13.142 93.457 L 13.107 93.419 L 13.107 93.419 L 2.513 82.035 L 2.634 81.922 L 74.384 15.417 L 74.54 15.247 L 146.81 81.316 L 136.282 92.832 L 74.505 36.355 Z " fill="rgb(0,0,0)"/><path d=" M 0 87.755 C 0 85.433 1.019 83.348 2.634 81.922 C 4.006 80.712 5.807 79.977 7.778 79.977 C 12.071 79.977 15.556 83.462 15.556 87.755 C 15.556 89.987 14.615 92 13.107 93.419 C 11.714 94.73 9.839 95.533 7.778 95.533 C 3.485 95.533 0 92.048 0 87.755 L 0 87.755 Z " fill="rgb(0,0,0)"/><path d=" M 134.276 87.755 C 134.276 85.408 135.306 83.301 136.939 81.86 C 138.325 80.636 140.146 79.893 142.138 79.893 C 146.477 79.893 150 83.416 150 87.755 C 150 90.011 149.048 92.046 147.524 93.48 C 146.117 94.805 144.221 95.617 142.138 95.617 C 137.799 95.617 134.276 92.094 134.276 87.755 L 134.276 87.755 Z " fill="rgb(0,0,0)"/><path d=" M 94.021 105.428 L 94.021 147.389 L 125.738 147.389 L 125.738 89.358 L 125.738 89.358 L 125.738 89.358 L 74.708 42.377 L 23.51 89.358 L 23.51 89.358 L 23.51 89.358 L 23.51 147.389 L 55.227 147.389 L 55.227 105.428 C 55.227 94.723 63.918 86.031 74.624 86.031 C 85.33 86.031 94.021 94.723 94.021 105.428 L 94.021 105.428 Z " fill-rule="evenodd" fill="rgb(0,0,0)"/></svg>