<?xml version="1.0" encoding="UTF-8" standalone="no"?><!-- Generator: Gravit.io --><svg xmlns="http://www.w3.org/2000/svg" xmlns:xlink="http://www.w3.org/1999/xlink" style="isolation:isolate" viewBox="0 0 500 250" width="500pt" height="250pt"><path d=" M 245.688 28.821 C 245.673 28.841 245.316 31.055 244.894 33.74 C 243.546 42.328 243.116 44.715 241.771 51.063 C 240.757 55.854 241.118 55.359 238.449 55.623 C 232.751 56.184 228.58 58.172 224.438 62.302 L 221.866 64.865 L 221.529 62.683 C 220.995 59.237 219.656 57.831 219.2 60.237 C 219.088 60.83 218.788 62.094 218.533 63.048 C 214.659 77.553 214.979 88.193 219.248 86.838 C 219.782 86.669 219.887 86.458 219.735 85.855 C 219.491 84.879 220.291 80.245 221.312 76.717 C 223.883 67.844 229.803 60.693 237.147 57.587 C 240.398 56.213 240.657 56.357 240.033 59.206 C 239.855 60.019 239.578 61.322 239.418 62.102 C 239.258 62.883 238.912 64.512 238.647 65.725 C 238.383 66.939 237.801 69.704 237.354 71.871 C 236.909 74.037 236.414 76.377 236.255 77.07 C 235.201 81.679 234.607 84.817 234.76 84.97 C 235.634 85.844 239.264 82.561 240.966 79.359 C 242.312 76.825 242.421 76.698 243.412 76.509 C 245.12 76.182 247.622 77.478 253.908 81.949 C 257.805 84.72 260.036 85.067 263.742 83.471 C 265.665 82.644 265.657 82.269 263.715 82.269 C 260.677 82.269 260.338 82.08 256.115 78.03 C 252.907 74.951 251.829 74.109 250.598 73.716 L 249.067 73.228 L 251.836 71.404 C 261.271 65.19 264.754 59.84 262.011 55.77 C 261.226 54.605 260.21 54.171 260.21 54.999 C 260.21 56.63 256.064 62.495 252.758 65.542 C 250.617 67.513 246.249 70.926 245.865 70.926 C 245.749 70.926 245.235 71.225 244.72 71.59 C 243.07 72.765 243.225 71.408 245.87 61.472 C 251.325 40.98 251.57 29.822 246.582 28.94 C 246.105 28.856 245.702 28.802 245.688 28.821 Z " fill-rule="evenodd" fill="rgb(6,7,6)"/><path d=" M 205.222 59.448 C 193.943 65.541 186.359 74.448 186.326 81.639 C 186.285 90.718 194.443 90.54 201.483 81.31 C 202.955 79.377 203.173 79.366 203.173 81.226 C 203.173 84.966 205.24 86.794 209.44 86.772 C 213.407 86.751 215.505 85.728 212.443 85.309 C 209.952 84.967 208.179 83.353 207.29 80.615 C 206.464 78.075 208.979 71.006 213.013 64.526 L 214.544 62.065 L 213.594 61.177 C 211.787 59.488 206.982 58.497 205.222 59.448 Z  M 208.215 63.337 C 208.215 69.853 194.234 87.216 189.722 86.305 C 188.033 85.964 189.498 80.762 192.639 75.94 C 196.312 70.304 208.215 60.673 208.215 63.337 Z " fill-rule="evenodd" fill="rgb(6,7,6)"/><path d=" M 310.731 47.811 C 322.226 51.799 323.957 55.66 315.514 58.479 C 312.905 59.35 297.079 60.446 297.079 59.756 C 297.079 59.135 303.104 47.541 303.902 46.627 C 304.48 45.965 306.341 46.288 310.731 47.811 L 310.731 47.811 Z  M 303.251 43.747 C 303.122 43.876 300.865 44.071 298.236 44.177 C 293.346 44.377 290.653 44.803 289.651 45.536 C 289.181 45.88 290.06 45.922 294.928 45.789 C 301.775 45.601 301.584 45.478 299.46 48.71 C 296.707 52.9 291.948 61.879 289.855 66.828 C 289.452 67.782 288.873 69.129 288.569 69.823 C 286.746 73.961 283.844 82.992 283.844 84.523 C 283.844 85.724 306.541 85.177 313.466 83.809 C 323.633 81.802 326.693 79.242 324.531 74.549 C 322.519 70.183 308.265 63.089 301.408 63.042 C 300.837 63.038 300.793 62.979 301.176 62.732 C 301.436 62.564 303.633 62.425 306.06 62.422 C 319.646 62.406 326.385 60.264 326.385 55.966 C 326.385 51.897 318.026 46.825 308.108 44.876 C 306.808 44.619 305.355 44.334 304.878 44.24 C 304.402 44.145 304.012 43.943 304.012 43.789 C 304.012 43.449 303.573 43.423 303.251 43.747 L 303.251 43.747 Z  M 300.289 64.913 C 311.77 67.876 319.138 71.7 319.138 74.696 C 319.138 78.663 311.758 80.79 296.5 81.22 L 289.112 81.428 L 289.339 80.194 C 289.745 77.998 292.244 70.614 294.158 65.962 C 295.135 63.584 295.139 63.584 300.289 64.913 Z " fill-rule="evenodd" fill="rgb(6,7,6)"/><path d=" M 340.723 67.125 C 334.38 68.676 326.8 76.801 326.442 82.436 C 325.7 94.084 344.972 97.612 355.05 87.672 C 363.887 78.956 353.466 64.009 340.723 67.125 Z  M 350.572 71.674 C 355.446 74.146 355.42 81.002 350.52 85.288 C 344.207 90.811 332.846 91.556 330.29 86.613 C 328.005 82.198 336.502 72.956 344.821 70.81 C 346.106 70.478 349.1 70.928 350.572 71.674 Z " fill-rule="evenodd" fill="rgb(6,7,6)"/><path d=" M 171.609 53.592 C 174.231 54.427 174.993 55.205 174.664 56.705 C 174.312 58.305 170.055 61.866 166.619 63.434 C 162.272 65.418 161.154 65.91 159.056 66.759 C 155.283 68.29 152.998 69.07 152.819 68.891 C 152.575 68.647 153.885 63.435 156.132 55.707 C 156.424 54.702 156.863 53.714 157.107 53.51 C 158.444 52.402 168.049 52.456 171.609 53.592 L 171.609 53.592 Z  M 159.095 50.992 C 157.007 51.358 156.405 51.373 156.215 51.063 C 156.037 50.777 155.888 50.83 155.655 51.266 C 155.462 51.626 154.545 52.089 153.336 52.436 C 150.681 53.202 143.939 56.517 142.995 57.522 C 142.042 58.537 142.501 58.53 144.788 57.5 C 147.681 56.196 147.722 56.181 150.799 55.14 C 154.158 54.007 154.315 54.048 153.552 55.875 C 153.245 56.614 152.874 57.502 152.729 57.848 C 148.566 67.815 142.748 97.71 144.972 97.71 C 145.807 97.71 155.965 94.279 158.899 93.005 C 159.591 92.704 161.648 91.841 163.468 91.087 C 182.412 83.233 188.198 75.74 178.521 71.593 C 175.061 70.109 165.947 69.468 159.588 70.261 C 156.985 70.586 157.108 70.199 159.929 69.183 C 174.136 64.072 179.814 60.506 180.1 56.515 C 180.458 51.51 170.732 48.953 159.095 50.992 L 159.095 50.992 Z  M 171.569 72.955 C 182.54 75.263 175.946 82.402 155.747 90.086 C 152.973 91.141 150.297 92.102 149.798 92.223 L 148.89 92.442 L 149.106 89.325 C 149.225 87.612 149.451 85.429 149.608 84.475 C 149.765 83.522 150.115 81.253 150.386 79.433 C 150.923 75.816 151.465 73.461 151.77 73.42 C 159.103 72.408 167.977 72.2 171.569 72.955 Z " fill-rule="evenodd" fill="rgb(6,7,6)"/><path d=" M 57.195 81.403 C 55.967 82.348 55.188 91.483 56.142 93.76 C 57.169 96.212 58.968 97.066 59.32 95.269 C 59.544 94.112 60.694 89.637 61.12 88.257 C 61.928 85.641 61.808 82.414 60.876 81.681 C 59.915 80.925 58.003 80.782 57.195 81.403 Z " fill-rule="evenodd" fill="rgb(6,7,6)"/><path d=" M 378.066 78.828 C 367.876 81.046 360.795 86.809 360.481 93.141 C 360.1 100.786 367.524 102.49 376.135 96.734 L 377.198 96.024 L 376.961 96.769 C 376.119 99.422 377.091 103.302 378.893 104.482 C 382.033 106.54 385.943 107.689 385.943 106.554 C 385.943 106.412 385.536 106.127 385.04 105.921 C 382.866 105.021 380.896 101.732 380.908 99.024 C 380.922 96.119 383.321 92.446 388.32 87.674 C 392.103 84.061 392.084 84.119 390.194 82.017 C 386.71 78.143 384.223 77.488 378.066 78.828 Z  M 385.629 82.621 C 385.629 83.397 383.411 86.835 381.537 88.964 C 378.299 92.644 369.016 97.388 365.045 97.394 C 362.408 97.397 362.058 96.424 363.592 93.355 C 366.286 87.963 374.426 83.721 385.392 81.992 C 385.523 81.971 385.629 82.254 385.629 82.621 Z " fill-rule="evenodd" fill="rgb(6,7,6)"/><path d=" M 110.37 81.206 C 110.023 81.275 108.96 81.485 108.006 81.672 C 99.56 83.338 90.057 101.668 93.818 109.041 C 98.658 118.528 119.777 105.495 122.504 91.338 C 122.795 89.824 122.482 90.046 121.253 92.225 C 112.502 107.729 94.331 115.977 97.711 102.91 L 98.119 101.335 L 100.325 101.136 C 107.804 100.461 120.063 86.467 116.513 82.657 C 115.467 81.533 112.394 80.808 110.37 81.206 Z  M 111.787 84.097 C 115.621 85.965 107.376 96.769 100.529 98.848 C 98.581 99.439 98.584 99.045 100.558 95.077 C 104.683 86.784 108.88 82.681 111.787 84.097 Z " fill-rule="evenodd" fill="rgb(6,7,6)"/><path d=" M 396.593 84.893 C 391.769 92.583 387.62 103.768 388.281 107.297 C 388.707 109.569 391.301 111.195 391.301 109.189 C 391.301 108.045 394.175 102.118 395.908 99.689 C 400.995 92.561 406.604 89.653 414.814 89.888 C 419.318 90.016 419.396 89.933 416.038 88.575 C 414.151 87.813 413.303 87.596 411.153 87.329 C 407.048 86.819 403.041 87.577 399.671 89.507 L 398.041 90.439 L 398.175 87.643 C 398.355 83.845 397.827 82.925 396.593 84.893 Z " fill-rule="evenodd" fill="rgb(6,7,6)"/><path d=" M 454.13 88.967 C 450.535 92.675 449.298 95.679 450.219 98.468 C 450.733 100.029 451.077 100.13 452.225 99.054 C 452.774 98.54 454.391 97.243 455.821 96.169 C 459.926 93.086 460.549 89.688 457.41 87.49 C 456.362 86.755 456.205 86.827 454.13 88.967 Z " fill-rule="evenodd" fill="rgb(6,7,6)"/><path d=" M 81.009 92.648 C 77.059 94.071 73.822 97.302 72.49 101.153 C 71.809 103.123 71.371 103.226 71.071 101.485 C 70.472 98.014 67.92 96.446 64.44 97.412 C 63.289 97.732 62.809 98.342 63.707 98.342 C 64.371 98.342 66.043 99.848 66.631 100.979 C 67.803 103.226 68.036 105.511 68.207 116.424 L 68.375 127.102 L 70.543 126.92 C 73.556 126.668 73.389 127.02 73.149 121.4 C 72.945 116.627 73.302 110.537 73.956 107.637 C 75.367 101.365 76.64 98.249 78.705 96.008 C 80.987 93.533 81.584 94.403 82.531 101.591 C 83.16 106.357 83.166 107.587 82.605 115.23 L 82.394 118.096 L 83.838 118.46 C 86.171 119.048 86.453 118.965 87.028 117.527 C 89.55 111.225 88.971 98.124 85.982 93.861 C 84.694 92.023 83.53 91.741 81.009 92.648 Z " fill-rule="evenodd" fill="rgb(6,7,6)"/><path d=" M 443.533 80.117 C 442.221 81.657 438.939 85.888 432.958 93.747 L 430.656 96.771 L 429.254 95.808 C 427.008 94.262 425.42 93.667 423.96 93.824 C 409.799 95.349 399.096 106.888 405.993 113.193 C 409.806 116.678 413.969 116.656 420.246 113.117 C 422.309 111.952 422.355 111.992 421.735 114.41 C 420.286 120.068 423.699 124.615 428.693 123.679 C 430.445 123.349 430.222 122.697 428.301 122.537 C 421.273 121.955 425.451 111.468 440.426 92.1 C 451.573 77.687 450.888 79.112 446.887 78.657 L 444.964 78.437 L 443.533 80.117 Z  M 428.456 97.67 C 433.275 99.02 416.824 112.521 410.361 112.521 C 401.955 112.521 412.737 100.088 423.286 97.616 C 424.234 97.394 427.594 97.429 428.456 97.67 Z " fill-rule="evenodd" fill="rgb(6,7,6)"/><path d=" M 39.118 99.141 C 22.173 102.862 -1.354 122.785 0.061 132.218 C 0.612 135.899 3.241 135.196 3.446 131.315 C 4.069 119.438 27.962 101.508 43.185 101.495 C 51.532 101.486 48.723 107.541 34.407 120.417 C 33.358 121.361 31.869 122.703 31.099 123.4 C 30.329 124.096 28.719 125.515 27.522 126.552 L 25.348 128.435 L 25.559 124.339 C 26.224 111.511 26.149 106.517 25.341 109.764 C 23.586 116.823 22.692 121.379 22.266 125.442 C 22.056 127.434 21.846 129.349 21.801 129.695 C 21.754 130.042 21.703 130.626 21.689 130.992 C 21.671 131.456 20.224 132.826 16.936 135.494 C 12.341 139.223 11.291 140.325 13.075 139.546 C 14.262 139.027 17.72 136.94 19.536 135.647 C 20.36 135.059 21.141 134.581 21.27 134.581 C 21.4 134.582 21.527 136.816 21.553 139.544 C 21.618 146.437 22.545 152.464 24.083 155.985 C 25.057 158.218 25.584 157.81 25.092 155.204 C 24.593 152.563 24.899 131.928 25.446 131.268 C 25.661 131.01 28.123 129.134 30.919 127.1 C 40.196 120.349 47.105 114.187 49.824 110.241 C 55.231 102.388 49.832 96.791 39.118 99.141 Z " fill-rule="evenodd" fill="rgb(6,7,6)"/><path d=" M 57.144 103.663 C 56.768 103.811 56.287 104.656 55.857 105.926 C 55.479 107.04 55.085 108.165 54.983 108.425 C 54.879 108.684 54.442 110.387 54.012 112.207 C 51.307 123.632 52.232 130.014 56.871 131.952 C 60.541 133.485 66.39 126.448 66.406 120.479 C 66.413 117.749 65.794 118.482 64.494 122.747 C 63.701 125.345 61.414 128.592 60.376 128.592 C 57.678 128.592 57.668 114.221 60.361 105.683 C 60.7 104.608 60.9 103.651 60.805 103.556 C 60.556 103.306 57.851 103.386 57.144 103.663 Z " fill-rule="evenodd" fill="rgb(6,7,6)"/><path d=" M 444.383 104.366 C 433.224 110.26 428.103 122.332 434.581 127.474 C 437.344 129.666 443.859 128.031 445.548 124.721 C 446.4 123.051 446.135 122.963 444.175 124.262 C 439.948 127.062 436.678 127.139 436.678 124.438 C 436.678 120.544 441.783 112.946 447.218 108.753 C 449.228 107.202 449.275 107.041 448.1 105.709 C 446.458 103.844 445.814 103.611 444.383 104.366 Z " fill-rule="evenodd" fill="rgb(6,7,6)"/><path d=" M 454.052 107.056 C 455.523 111.512 453.158 117.564 445.519 128.908 C 443.552 131.829 443.552 131.869 445.591 133.882 C 447.881 136.143 447.612 136.288 450.38 131.315 C 455.071 122.891 460.951 117.585 465.612 117.568 C 469.043 117.556 469.085 118.82 465.894 126.072 C 464.437 129.386 460.662 135.265 459.23 136.455 C 458.208 137.301 460.017 141.827 461.376 141.827 C 465.216 141.827 472.287 129.721 472.287 123.148 C 472.287 117.014 464.601 112.9 458.902 115.984 C 457.016 117.005 456.922 116.951 457.633 115.248 C 458.825 112.4 457.938 108.881 455.452 106.592 C 453.569 104.854 453.35 104.926 454.052 107.056 Z " fill-rule="evenodd" fill="rgb(6,7,6)"/><path d=" M 323.682 103.889 C 325.521 104.595 322.313 110.758 317.081 116.565 C 315.935 117.836 315.506 118.136 315.319 117.799 C 315.057 117.331 315.459 112.499 315.851 111.418 C 317.474 106.936 321.509 103.057 323.682 103.889 L 323.682 103.889 Z  M 321.01 103.183 C 316.08 104.512 312.877 110.301 313.211 117.28 L 313.351 120.233 L 311.956 121.947 C 309.186 125.347 308.231 129.517 309.829 131.232 C 310.91 132.393 314.737 132.357 316.752 131.167 C 318.323 130.242 318.443 130.273 320.194 132.058 C 324.229 136.175 330.167 136.628 330.167 132.82 C 330.167 131.581 329.344 130.974 328.852 131.853 C 328.263 132.905 325.023 131.684 322.49 129.457 L 321.273 128.387 L 323.003 126.909 C 325.972 124.372 327.728 121.379 326.908 120.255 C 326.359 119.507 324.809 119.814 324.809 120.673 C 324.809 121.209 321.509 125.35 320.268 126.368 C 319.478 127.018 318.884 126.545 317.483 124.153 C 315.924 121.492 315.965 121.222 318.299 118.824 C 324.415 112.539 327.506 104.878 324.684 102.995 C 324.182 102.66 322.661 102.737 321.01 103.183 L 321.01 103.183 Z  M 314.738 123.983 C 314.745 124.179 315.301 125.26 315.972 126.386 C 317.355 128.702 317.25 129.133 315.088 130.037 C 311.668 131.465 310.127 129.923 311.583 126.526 C 312.752 123.8 314.68 122.246 314.738 123.983 Z " fill-rule="evenodd" fill="rgb(6,7,6)"/><path d=" M 479.219 132.196 C 463.851 136.478 470.947 155.494 487.015 153.087 C 489.356 152.737 489.951 152.855 489.388 153.558 C 489.212 153.779 488.533 154.952 487.881 156.165 C 481.956 167.186 477.508 169.544 469.647 165.834 C 462.608 162.511 460.059 157.326 463.8 153.94 C 464.99 152.863 462.777 152.381 460.959 153.321 C 456.888 155.428 459.22 162.045 465.539 166.311 C 475.795 173.236 483.07 173.321 487.356 166.565 C 493.669 156.611 501.021 140.016 499.882 138.285 C 496.629 133.339 486.174 130.258 479.219 132.196 Z  M 492.664 135.874 C 495.422 136.546 495.866 137.826 494.594 141.456 C 492.283 148.052 489.129 149.983 481.231 149.641 C 474.359 149.344 471.552 146.505 473.659 141.982 C 474.903 139.311 480.345 136.238 484.036 136.124 C 484.593 136.107 485.404 135.989 485.837 135.862 C 487.157 135.474 491.051 135.481 492.664 135.874 Z " fill-rule="evenodd" fill="rgb(6,7,6)"/><path d=" M 406.914 145.835 C 405.731 148.832 405.476 152.4 406.364 153.488 L 407.008 154.275 L 407.319 153.488 C 407.49 153.054 408.159 151.565 408.803 150.179 C 410.518 146.493 410.399 144.488 408.431 143.899 C 407.835 143.722 407.657 143.948 406.914 145.835 Z " fill-rule="evenodd" fill="rgb(6,7,6)"/><path d=" M 317.405 147.329 C 317.231 147.38 316.452 147.613 315.672 147.846 C 309.378 149.723 301.602 157.618 300.229 163.523 C 297.028 177.297 311.585 182.856 323.034 172.231 C 324.615 170.764 324.658 170.866 323.865 174.173 C 322.912 178.151 322.911 180.676 323.864 181.69 C 324.798 182.685 324.849 182.619 324.979 180.246 C 325.251 175.249 327.48 168.467 329.727 165.795 L 330.579 164.783 L 329.61 163.814 L 328.641 162.845 L 325.859 163.354 C 321.132 164.218 318.13 164.531 314.465 164.542 C 310.753 164.552 310.147 164.991 312.276 166.13 C 313.485 166.777 322.198 166.028 326.038 164.946 C 328.115 164.361 326.163 167.388 322.581 170.301 C 315.425 176.124 305.951 177.002 303.335 172.085 C 299.505 164.883 310.686 150.241 320.043 150.205 C 323.104 150.193 325.755 151.743 325.755 153.542 C 325.755 154.612 326.173 154.686 326.84 153.732 C 328.938 150.736 321.924 145.976 317.405 147.329 Z " fill-rule="evenodd" fill="rgb(6,7,6)"/><path d=" M 379.615 156.451 C 380.872 157.966 380.524 160.767 377.93 169.939 C 375.925 177.033 375.92 177.078 376.989 177.858 C 378.106 178.671 378.5 178.388 378.955 176.448 C 380.816 168.526 382.685 163.964 385.028 161.621 C 386.69 159.958 387.417 159.729 387.584 160.814 C 387.786 162.131 386.555 167.305 384.945 171.9 C 384.281 173.794 383.737 175.385 383.737 175.436 C 383.737 175.591 385.574 176.491 385.887 176.491 C 386.047 176.491 386.99 174.045 387.981 171.055 C 390.129 164.582 390.981 162.751 392.569 161.2 L 393.762 160.035 L 394.299 160.856 C 395.477 162.652 395.286 166.567 393.516 177.056 C 393.305 178.301 393.358 178.457 394.182 179.046 C 395.288 179.831 395.579 179.671 395.805 178.154 C 395.903 177.499 396.285 175.617 396.654 173.971 C 399.178 162.736 396.635 155.705 391.472 159.644 C 390.848 160.119 390.3 160.453 390.252 160.385 C 390.203 160.318 389.921 159.873 389.623 159.396 C 388.485 157.578 385.252 158.455 383.251 161.127 L 382.32 162.367 L 382.162 159.852 C 382.025 157.657 381.905 157.254 381.217 156.684 C 380.292 155.916 379.018 155.73 379.615 156.451 Z " fill-rule="evenodd" fill="rgb(6,7,6)"/><path d=" M 409.332 157.612 C 409.984 158.495 410.05 158.927 410.046 162.26 C 410.042 165.928 409.885 167.026 408.448 173.425 C 407.481 177.734 407.475 177.654 408.823 178.218 C 410.219 178.801 410.449 178.675 410.685 177.19 C 410.787 176.546 410.995 175.451 411.148 174.758 C 411.299 174.064 411.655 172.433 411.938 171.135 C 413.367 164.553 417.531 157.697 418.525 160.289 C 419.076 161.725 418.216 169.209 417.028 173.313 C 416.231 176.062 416.505 177.022 418.135 177.198 C 421.219 177.535 423.077 161.02 420.185 158.994 C 418.497 157.811 415.218 158.921 413.602 161.219 L 412.572 162.686 L 412.407 160.844 C 412.208 158.641 411.761 157.751 410.529 157.115 C 408.949 156.296 408.499 156.484 409.332 157.612 Z " fill-rule="evenodd" fill="rgb(6,7,6)"/><path d=" M 341.091 158.072 C 339.513 158.65 336.977 160.525 335.949 161.873 C 334.867 163.292 334.686 163.228 334.507 161.359 C 334.235 158.53 333.556 158.861 332.835 162.174 C 330.554 172.644 330.37 178.697 332.327 178.697 C 332.789 178.697 332.961 178.232 333.292 176.098 C 334.616 167.552 338.141 161.494 343.264 158.961 C 344.553 158.324 345.608 157.754 345.608 157.694 C 345.608 157.395 342.147 157.685 341.091 158.072 Z " fill-rule="evenodd" fill="rgb(6,7,6)"/><path d=" M 403.798 159.711 C 399.083 167.184 398.096 175.73 401.729 177.609 C 403.299 178.421 406.167 176.284 407.224 173.514 C 407.991 171.51 407.689 170.605 406.815 172.282 C 405.96 173.92 404.151 175.861 403.481 175.861 C 401.795 175.861 403.403 166.742 405.992 161.612 C 406.902 159.81 406.928 159.281 406.132 158.855 C 405.09 158.298 404.57 158.488 403.798 159.711 Z " fill-rule="evenodd" fill="rgb(6,7,6)"/><path d=" M 347.772 158.847 C 344.149 160.76 340.439 167.261 340.471 171.632 C 340.554 182.473 357.197 177.464 357.834 166.407 C 358.162 160.722 352.407 156.398 347.772 158.847 Z  M 354.071 161.524 C 358.035 165.32 351.861 175.546 345.605 175.546 C 342.102 175.546 341.549 172.323 344.222 167.463 C 347.444 161.607 351.564 159.123 354.071 161.524 Z " fill-rule="evenodd" fill="rgb(6,7,6)"/><path d=" M 366.783 158.721 C 361.866 161.24 357.759 170.811 359.878 174.809 C 363.212 181.098 374.205 176.68 376.468 168.14 C 376.872 166.617 376.905 164.395 376.535 163.646 C 375.082 160.704 374.387 159.87 372.627 158.96 C 371.146 158.193 368.059 158.068 366.783 158.721 Z  M 372.643 161.262 C 376.251 163.515 373.006 172.144 367.588 174.707 C 362.137 177.286 359.838 174.197 362.727 168.171 C 365.569 162.24 369.654 159.394 372.643 161.262 Z " fill-rule="evenodd" fill="rgb(6,7,6)"/><path d=" M 433.842 158.976 C 427.748 160.938 422.745 167.466 423.195 172.872 C 423.626 178.082 429.593 178.966 433.836 174.449 C 435.263 172.93 435.387 173.542 434.65 178.46 C 433.496 186.15 430.974 189.347 425.815 189.665 C 422.684 189.857 421.697 188.968 421.752 186.004 C 421.801 183.457 421.616 183.284 420.465 184.793 C 417.706 188.411 421.069 191.941 426.851 191.496 C 433.586 190.979 435.994 188.051 437.119 179.012 C 438.576 167.323 438.74 159.638 437.545 159.198 C 436.183 158.698 434.937 158.623 433.842 158.976 Z  M 435.613 161.563 C 436.55 165.293 434.953 170.353 431.966 173.119 C 424.109 180.394 422.224 172.684 429.88 164.586 C 433.521 160.734 435.185 159.857 435.613 161.563 Z " fill-rule="evenodd" fill="rgb(6,7,6)"/><path d=" M 194.689 212.616 C 195.108 213.072 196.05 213.715 196.779 214.043 C 199.804 215.403 198.936 215.732 191.198 216.152 C 182.994 216.599 181.429 216.606 181.429 216.196 C 181.429 216.024 181.931 215.882 182.543 215.882 C 183.24 215.882 183.723 215.705 183.836 215.409 C 183.937 215.148 184.164 214.936 184.343 214.936 C 184.523 214.936 184.837 214.706 185.042 214.425 C 185.322 214.041 186.067 213.887 188.001 213.81 C 190.263 213.72 190.749 213.591 191.915 212.773 C 193.58 211.605 193.75 211.596 194.689 212.616 L 194.689 212.616 L 194.689 212.616 L 194.689 212.616 L 194.689 212.616 Z  M 201.364 212.739 C 202.992 213.517 204.982 215.122 204.685 215.42 C 204.566 215.539 203.523 215.712 202.368 215.805 L 200.267 215.973 L 200.471 215.04 C 200.621 214.358 200.507 213.891 200.045 213.304 C 199.696 212.861 199.502 212.409 199.612 212.3 C 199.885 212.026 199.862 212.02 201.364 212.739 L 201.364 212.739 L 201.364 212.739 L 201.364 212.739 Z  M 141.059 213.755 C 142.154 216.69 141.415 218.787 139.624 217.829 C 138.237 217.087 138.015 213.883 139.314 213.359 C 140.407 212.918 140.778 213.002 141.059 213.755 L 141.059 213.755 L 141.059 213.755 Z  M 159.038 216.337 C 158.4 217.389 157.866 217.969 157.693 217.795 C 157.519 217.622 157.811 216.799 158.426 215.723 C 159.128 214.498 159.548 214.041 159.772 214.265 C 159.995 214.488 159.766 215.136 159.038 216.337 L 159.038 216.337 Z  M 249.18 96.487 L 249.18 101.251 L 248.393 101.1 C 247.96 101.018 247.605 101.071 247.605 101.22 C 247.605 101.371 247.72 101.492 247.86 101.492 C 249.016 101.492 249.191 102.311 248.292 103.516 C 247.359 104.769 247.334 105.167 248.05 107.401 C 248.218 107.922 248.153 108.109 247.806 108.109 C 247.545 108.109 247.242 107.827 247.133 107.479 C 247.023 107.133 246.737 106.849 246.499 106.849 C 246.26 106.849 245.856 106.552 245.603 106.189 L 245.139 105.527 L 244.791 106.179 C 244.497 106.727 244.618 107.077 245.55 108.374 C 246.704 109.98 246.962 110.945 246.235 110.945 C 245.761 110.945 244.959 110.111 244.684 109.331 C 244.469 108.719 242.57 108.358 242.366 108.89 C 242.288 109.09 242.443 109.67 242.708 110.179 C 243.798 112.269 243.149 113.612 241.587 112.499 L 240.615 111.807 L 241.034 112.48 C 241.265 112.849 241.566 113.151 241.701 113.151 C 241.838 113.151 242.083 113.507 242.248 113.94 C 242.412 114.373 242.676 114.727 242.834 114.727 C 243.489 114.727 243.889 117.327 243.404 118.43 C 243.019 119.305 242.563 119.352 242.563 118.518 C 242.563 118.083 242.257 117.817 241.538 117.626 C 240.707 117.407 240.517 117.202 240.526 116.528 C 240.537 115.753 240.458 115.706 239.32 115.816 C 237.764 115.965 237.547 116.199 238.407 116.8 C 239.32 117.44 239.349 118.824 238.447 118.824 C 238.092 118.824 237.868 118.937 237.954 119.075 C 238.039 119.213 237.993 119.518 237.848 119.751 C 237.396 120.483 238.103 121.816 239.184 122.264 C 239.954 122.584 240.066 122.719 239.648 122.827 C 238.973 122.999 238.929 123.506 239.57 123.752 C 239.829 123.852 240.043 124.191 240.043 124.507 C 240.043 124.822 240.254 125.126 240.513 125.183 C 240.93 125.272 240.93 125.385 240.513 126.186 C 239.865 127.43 239.901 127.56 241.067 128.152 C 242.414 128.838 242.4 128.818 241.94 129.372 C 241.443 129.971 240.136 129.975 239.097 129.381 C 238.023 128.767 237.755 128.799 238.129 129.498 C 238.992 131.108 239.057 132.644 238.283 133.15 C 237.26 133.82 236.923 133.761 236.575 132.847 C 236.411 132.414 236.166 132.048 236.032 132.035 C 235.191 131.952 234.56 131.734 233.892 131.297 C 232.894 130.644 232.479 130.667 232.479 131.38 C 232.479 132.013 233.408 133.004 234.001 133.004 C 234.204 133.004 234.369 133.146 234.369 133.32 C 234.369 133.493 234.157 133.635 233.898 133.635 C 233.123 133.635 233.362 134.238 234.222 134.453 C 234.804 134.599 234.972 134.804 234.842 135.21 C 234.715 135.61 234.975 135.95 235.762 136.413 C 236.763 137.005 236.843 137.156 236.677 138.177 C 236.516 139.168 236.588 139.328 237.324 139.606 C 237.779 139.78 238.151 140.133 238.151 140.392 C 238.151 140.701 238.332 140.793 238.675 140.662 C 239.09 140.502 239.162 140.603 239.02 141.145 C 238.882 141.669 238.98 141.827 239.441 141.827 C 239.772 141.827 240.043 141.954 240.043 142.109 C 240.043 143.035 234.806 142.584 233.391 141.538 C 232.33 140.753 231.797 140.694 232.064 141.392 C 232.234 141.836 232.053 141.871 230.636 141.677 C 229.645 141.54 229.013 141.572 229.013 141.758 C 229.013 141.927 228.6 142.147 228.094 142.248 C 227.038 142.459 227.053 143.677 228.116 143.955 C 228.511 144.058 228.698 144.397 228.698 145.013 C 228.698 145.594 228.933 146.061 229.354 146.316 C 231.652 147.703 231.232 150.933 228.899 149.821 C 227.851 149.322 227.744 149.324 226.905 149.873 L 226.019 150.454 L 227.014 150.711 C 227.785 150.911 227.972 151.104 227.85 151.572 C 227.709 152.112 227.826 152.158 228.99 152 C 230.41 151.81 230.633 152.701 229.223 152.932 C 228.642 153.029 228.713 153.121 229.697 153.556 C 230.334 153.835 231.106 154.467 231.414 154.958 C 231.721 155.448 232.013 155.906 232.062 155.975 C 232.11 156.043 232.369 155.916 232.639 155.692 C 233.306 155.138 234.775 155.782 234.626 156.564 C 234.474 157.369 232.631 157.436 230.92 156.702 C 229.624 156.145 225.714 155.062 224.996 155.062 C 224.577 155.062 224.739 156.422 225.178 156.568 C 225.381 156.635 225.546 157.016 225.546 157.414 C 225.546 158.264 226.011 158.712 227.203 159.011 C 227.679 159.131 228.068 159.426 228.068 159.666 C 228.068 160.194 228.189 160.195 226.649 159.641 C 225.283 159.149 222.396 158.998 222.396 159.42 C 222.396 159.562 222.75 160.013 223.183 160.42 C 223.616 160.827 223.972 161.411 223.972 161.717 C 223.972 162.023 224.129 162.371 224.323 162.491 C 224.534 162.622 224.614 163.245 224.522 164.055 L 224.37 165.404 L 225.813 165.808 L 227.258 166.212 L 226.324 166.61 L 225.389 167.01 L 226.75 167.024 C 228.332 167.04 229.328 167.485 229.328 168.179 C 229.328 168.763 226.292 168.652 224.032 167.983 C 222.955 167.665 222.502 167.662 221.828 167.969 L 220.98 168.355 L 221.668 168.914 C 222.164 169.315 222.261 169.567 222.015 169.813 C 221.768 170.059 221.988 170.342 222.797 170.819 C 223.43 171.193 224.063 171.888 224.245 172.411 C 224.468 173.05 224.779 173.341 225.244 173.341 C 225.642 173.341 225.984 173.585 226.077 173.936 C 226.201 174.412 226.642 174.577 228.254 174.75 C 232.664 175.221 229.363 177.121 224.131 177.121 C 221.995 177.121 220.82 177.241 220.82 177.457 C 220.82 177.646 221.086 177.71 221.424 177.602 C 222.208 177.354 222.641 178.053 221.995 178.526 C 221.451 178.924 222.186 179.642 223.135 179.642 C 223.373 179.642 224.061 179.977 224.664 180.386 C 225.266 180.795 226.718 181.32 227.89 181.553 C 232.432 182.456 228.328 182.742 222.164 181.952 C 219.871 181.658 217.896 181.516 217.774 181.637 C 217.508 181.903 219.35 183.89 220.663 184.752 L 221.607 185.374 L 219.448 185.196 L 217.288 185.018 L 217.751 185.717 C 218.005 186.103 218.52 186.464 218.895 186.519 C 219.418 186.598 219.556 186.809 219.488 187.429 C 219.415 188.117 219.594 188.307 220.712 188.721 C 221.968 189.186 222.015 189.252 221.846 190.298 L 221.668 191.39 L 222.74 191.204 C 227.133 190.444 227.64 190.592 225.705 192.068 C 224.655 192.868 224.515 192.893 222.811 192.578 C 221.825 192.396 220.568 192.248 220.016 192.248 C 219.463 192.248 218.046 191.753 216.866 191.149 C 214.204 189.784 214.089 189.889 215.786 192.137 C 216.532 193.126 217.143 194.123 217.143 194.351 C 217.143 194.58 217.377 194.768 217.661 194.768 C 217.947 194.768 218.574 195.179 219.054 195.679 C 219.534 196.181 220.34 196.673 220.846 196.775 C 222.695 197.145 222.057 198.235 220.111 198.031 C 217.933 197.801 216.093 197.329 216.093 197.003 C 216.093 196.858 215.544 196.754 214.872 196.772 C 214.005 196.794 213.175 196.506 211.997 195.774 C 211.085 195.208 210.275 194.809 210.195 194.89 C 209.905 195.179 210.495 196.407 211.438 197.481 C 212.301 198.463 212.362 198.662 212.024 199.401 C 211.656 200.212 211.928 200.736 212.727 200.751 C 212.868 200.754 212.894 201.039 212.784 201.385 C 212.631 201.869 212.727 202.017 213.201 202.017 C 213.542 202.017 213.9 202.226 213.998 202.484 C 214.218 203.052 217.933 204.853 218.887 204.853 C 219.467 204.853 219.541 204.977 219.365 205.674 C 219.172 206.438 219.207 206.47 219.844 206.129 C 220.22 205.928 220.795 205.847 221.12 205.95 C 221.52 206.077 221.875 205.905 222.217 205.418 L 222.721 204.697 L 223.718 205.764 C 224.68 206.794 224.731 206.809 225.214 206.235 C 226.379 204.846 226.745 204.727 227.53 205.481 C 229.064 206.958 230.961 207.187 232.489 206.08 C 232.858 205.812 233.306 205.887 234.385 206.394 L 235.798 207.058 L 237.527 206.388 C 240.15 205.372 241.227 205.279 241.355 206.055 C 241.454 206.657 241.527 206.667 242.721 206.249 C 244.29 205.699 246.568 205.673 247.735 206.191 L 248.621 206.586 L 248.432 210.494 C 248.328 212.643 248.159 214.487 248.055 214.59 C 247.908 214.739 227.391 215.155 209.318 215.377 C 207.122 215.405 206.809 215.34 206.884 214.878 C 206.933 214.587 206.6 214.091 206.147 213.775 C 203.898 212.216 203.552 211.707 203.341 209.648 L 203.139 207.668 L 203.944 207.871 C 204.534 208.018 204.749 207.948 204.749 207.609 C 204.749 207.354 205.376 206.813 206.144 206.405 C 206.912 205.998 207.466 205.546 207.378 205.403 C 207.288 205.258 207.418 204.826 207.665 204.445 C 207.913 204.063 208.215 203.324 208.338 202.804 C 208.46 202.284 208.628 201.628 208.711 201.347 C 208.901 200.704 206.789 201.025 204.676 201.959 C 203.936 202.286 203.046 202.666 202.7 202.804 C 202.354 202.942 200.155 203.161 197.816 203.289 C 195.476 203.419 192.567 203.693 191.352 203.9 L 189.144 204.275 L 186.072 202.83 C 184.383 202.036 182.718 201.385 182.371 201.385 C 182.024 201.385 181.432 201.031 181.055 200.598 C 180.254 199.677 179.689 199.597 179.27 200.347 C 179.015 200.803 178.892 200.82 178.459 200.459 C 177.833 199.94 177.875 199.888 177.209 202.064 C 176.91 203.044 176.389 204.093 176.054 204.398 C 175.279 205.098 175.273 205.702 176.038 205.945 C 176.366 206.048 176.713 206.431 176.808 206.797 C 176.952 207.347 177.144 207.427 177.945 207.267 C 178.843 207.087 178.909 207.136 178.909 207.99 C 178.909 208.495 179.051 209.281 179.223 209.737 C 179.75 211.119 178.603 212.115 174.74 213.633 C 173.02 214.309 173.983 215.044 176.278 214.808 C 178.51 214.579 178.854 214.925 177.569 216.112 C 176.837 216.788 175.27 216.956 163.391 217.623 C 159.591 217.837 159.624 217.867 161.158 215.572 C 161.562 214.968 161.895 214.331 161.897 214.154 C 161.931 212.317 166.115 211.15 166.44 212.887 C 166.668 214.099 167.214 214.35 167.473 213.36 C 167.699 212.497 168.086 212.569 168.323 213.517 C 168.432 213.952 168.749 214.306 169.028 214.306 C 169.734 214.306 169.371 212.625 168.345 211.146 C 167.915 210.526 167.564 209.892 167.564 209.737 C 167.564 209.581 167.193 208.92 166.739 208.265 C 165.958 207.137 165.878 206.468 166.335 204.891 C 166.404 204.653 166.29 204.395 166.079 204.318 C 165.86 204.238 165.612 204.556 165.499 205.066 C 165.39 205.556 165.243 206.168 165.175 206.428 C 165.074 206.813 162.501 208.634 162.059 208.634 C 161.991 208.634 161.891 208.323 161.835 207.944 C 161.717 207.134 159.834 206.47 159.266 207.038 C 158.721 207.582 158.236 207.427 157.852 206.586 C 157.091 204.916 155.966 205.822 156.572 207.615 C 156.79 208.262 156.934 209.153 156.892 209.594 C 156.85 210.035 157.115 210.777 157.482 211.241 C 158.138 212.075 158.139 212.115 157.599 214.063 C 156.457 218.172 156.576 218.104 149.838 218.526 L 146.451 218.737 L 146.441 217.86 C 146.436 217.379 146.222 216.709 145.968 216.373 C 145.333 215.533 145.388 214.513 146.135 213.29 C 146.481 212.722 146.764 211.929 146.765 211.528 C 146.767 210.304 147.34 209.579 148.307 209.579 C 151.105 209.579 152.888 205.55 150.751 204.053 C 149.616 203.259 149.2 203.455 149.751 204.522 C 151.173 207.269 148.298 209.303 145.231 207.72 C 144.948 207.574 142.294 207.382 139.334 207.293 L 133.949 207.132 L 131.803 205.991 C 128.923 204.464 128.545 204.507 126.794 206.557 C 125.129 208.507 125.045 208.807 126.096 209.071 C 126.688 209.219 126.816 209.412 126.677 209.943 C 126.521 210.537 126.596 210.597 127.257 210.417 C 130.22 209.606 131.477 210.221 132.118 212.792 C 132.356 213.745 129.196 217.458 128.147 217.458 C 127.301 217.458 126.715 218.346 127.39 218.605 C 128.546 219.049 133.487 215.951 134.571 214.105 C 135.225 212.991 136.384 214.029 136.989 216.269 C 137.21 217.09 137.586 217.922 137.825 218.119 C 139.286 219.334 138.981 219.402 128.017 220.287 C 119.608 220.966 112.77 221.59 107.218 222.181 C 105.486 222.366 102.082 222.724 99.655 222.978 C 92.679 223.706 83.245 224.811 79.488 225.339 C 78.275 225.509 76.396 225.741 75.312 225.852 C 74.229 225.965 73.342 226.178 73.342 226.327 C 73.342 226.475 152.404 226.595 250.126 226.595 C 367.771 226.595 426.91 226.491 426.91 226.281 C 426.91 226.107 426.491 225.965 425.979 225.965 C 425.468 225.965 424.369 225.836 423.538 225.677 C 421.969 225.378 421.515 225.317 409.263 223.769 C 399.757 222.568 397.523 222.306 391.774 221.72 C 389.173 221.456 385.771 221.097 384.21 220.925 C 380.954 220.564 372.962 219.807 367.666 219.356 C 365.673 219.188 362.341 218.901 360.262 218.721 C 348.864 217.732 324.083 216.302 305.43 215.559 C 301.096 215.387 287.558 215.096 275.342 214.913 C 258.872 214.667 253.069 214.484 252.889 214.207 C 252.755 214.001 252.681 212.415 252.725 210.682 L 252.805 207.531 L 255.168 207.297 C 256.811 207.133 257.649 206.901 257.921 206.535 C 258.279 206.047 258.353 206.045 258.874 206.517 C 259.184 206.798 260.073 207.118 260.848 207.229 C 262.797 207.507 264.197 207.938 266.023 208.823 C 267.988 209.776 269.979 209.853 269.979 208.975 C 269.979 207.571 270.277 207.373 272.386 207.373 C 273.526 207.373 274.923 207.156 275.582 206.875 L 276.753 206.377 L 275.336 205.144 C 273.737 203.751 274.527 203.31 276.653 204.409 C 277.731 204.966 278.094 204.917 280.929 203.838 C 282.497 203.241 282.82 203.008 282.509 202.698 C 282.198 202.388 282.327 202.144 283.139 201.508 C 283.701 201.07 284.16 200.524 284.16 200.295 C 284.16 200.067 284.656 199.787 285.263 199.673 C 285.869 199.56 286.365 199.323 286.365 199.148 C 286.365 198.973 287.146 198.472 288.1 198.035 C 291.597 196.435 290.74 195.463 286.725 196.479 C 283.432 197.314 280.401 196.891 281.941 195.813 C 282.316 195.551 282.482 195.184 282.365 194.878 C 282.25 194.58 282.384 194.256 282.693 194.084 C 282.979 193.923 283.214 193.508 283.214 193.162 C 283.214 192.816 283.604 192.173 284.081 191.735 L 284.947 190.938 L 283.967 191.103 C 280.202 191.737 279.777 191.729 279.962 191.025 C 280.168 190.231 279.756 190.173 278.502 190.822 C 277.484 191.347 277.122 190.983 277.443 189.756 C 277.582 189.224 277.472 189.096 276.869 189.095 C 276.139 189.093 276.143 189.077 277.069 188.318 L 278.015 187.544 L 277.148 187.533 C 276.566 187.524 276.281 187.353 276.281 187.014 C 276.281 186.63 276.474 186.555 277.077 186.707 C 277.812 186.891 277.856 186.842 277.661 186.06 C 277.451 185.223 277.457 185.219 278.196 185.736 C 279.225 186.459 279.862 186.432 279.463 185.685 C 279.196 185.189 279.363 185.036 280.681 184.562 C 282.213 184.011 283.48 182.993 282.997 182.7 C 282.718 182.529 279.905 182.932 279.071 183.261 C 278.784 183.375 278.458 183.315 278.343 183.13 C 278.22 182.933 278.404 182.794 278.784 182.794 C 279.143 182.794 279.432 182.589 279.432 182.332 C 279.432 182.079 279.711 181.721 280.05 181.54 C 280.389 181.359 280.899 180.679 281.18 180.033 C 281.463 179.385 281.903 178.465 282.156 177.988 C 282.423 177.49 282.482 177.121 282.297 177.121 C 281.247 177.121 281.299 175.797 282.405 174.449 C 283.022 173.694 283.53 172.995 283.53 172.893 C 283.53 172.333 280.819 172.855 278.597 173.844 C 278.051 174.086 277.386 174.285 277.119 174.285 C 276.851 174.285 276.545 174.427 276.439 174.601 C 276.061 175.21 275.336 174.923 275.336 174.165 C 275.336 173.491 275.634 173.254 276.912 172.909 C 277.459 172.763 278.619 171.202 278.537 170.724 C 278.484 170.407 278.805 169.809 279.252 169.395 C 281.369 167.432 279.497 166.505 276.37 167.969 C 273.926 169.112 273.325 169.155 272.675 168.229 C 272.047 167.331 272.056 167.037 272.711 167.037 C 273.001 167.037 273.478 166.821 273.77 166.556 C 274.192 166.174 274.487 166.144 275.189 166.411 C 276.471 166.9 277.436 165.97 276.388 165.256 C 275.713 164.796 275.717 164.785 277.097 163.512 C 278.765 161.975 279.024 160.567 277.699 160.234 C 277.134 160.092 276.912 159.824 276.912 159.282 C 276.912 158.298 274.958 158.222 273.76 159.16 C 272.828 159.888 271.998 159.962 271.648 159.347 C 271.51 159.105 271.042 158.856 270.609 158.796 C 270.074 158.721 269.788 158.459 269.721 157.978 C 269.605 157.169 269.64 157.155 270.767 157.584 C 271.537 157.876 271.581 157.847 271.382 157.191 C 271.024 156.011 271.057 155.87 271.712 155.765 C 273.474 155.484 274.101 154.212 272.718 153.722 C 272.225 153.549 272.893 152.534 273.621 152.352 C 274.24 152.196 274.302 152.076 274.004 151.599 C 273.726 151.154 273.763 150.918 274.178 150.505 C 274.856 149.826 274.866 148.761 274.193 148.761 C 273.791 148.761 273.722 148.555 273.873 147.8 C 274.086 146.738 274 146.75 272.263 148.035 L 271.239 148.792 L 270.186 147.988 C 269.605 147.547 268.763 147.185 268.313 147.185 C 267.863 147.185 267.412 147.05 267.31 146.886 C 267.03 146.433 268.203 145.932 269.032 146.148 C 269.704 146.324 269.747 146.262 269.569 145.372 C 269.368 144.368 269.663 143.937 271.011 143.258 C 271.805 142.858 272.094 142.143 271.462 142.143 C 271.209 142.143 270.832 141.939 270.624 141.688 C 270.417 141.438 269.797 141.19 269.247 141.135 L 268.246 141.037 L 269.822 140.275 C 271.134 139.639 271.279 139.492 270.687 139.388 C 269.936 139.256 269.709 138.709 270.373 138.629 C 270.589 138.604 270.129 138.496 269.349 138.393 C 267.727 138.177 267.522 137.205 268.739 135.495 C 269.578 134.319 269.513 134.156 268.283 134.355 C 267.697 134.45 267.086 134.398 266.925 134.236 C 266.747 134.059 266.283 134.314 265.727 134.893 C 264.421 136.256 262.784 136.093 263.834 134.705 C 264.355 134.017 264.449 132.814 264.002 132.538 C 263.834 132.434 263.775 131.957 263.871 131.478 C 263.987 130.896 263.88 130.467 263.546 130.191 C 262.895 129.651 262.913 129.484 263.72 128.618 C 264.179 128.126 264.279 127.826 264.037 127.675 C 263.805 127.532 264.063 127.076 264.772 126.37 C 266.058 125.09 266.091 124.946 265.22 124.48 C 264.65 124.174 264.441 124.259 263.722 125.088 C 262.651 126.326 260.976 126.816 261.299 125.799 C 261.477 125.239 261.386 125.126 260.757 125.126 C 259.784 125.126 259.475 124.809 260.017 124.369 C 260.749 123.776 261.217 121.975 260.64 121.975 C 260.375 121.975 260.212 121.868 260.279 121.739 C 261.085 120.174 261.464 118.987 261.314 118.51 C 261.137 117.954 262.18 116.618 262.79 116.618 C 262.931 116.618 263.045 116.39 263.045 116.111 C 263.045 115.465 261.61 115.765 260.682 116.606 C 258.871 118.248 256.301 118.969 256.607 117.749 C 256.741 117.215 256.602 116.791 256.141 116.33 C 255.314 115.503 255.3 114.828 256.105 114.573 C 256.447 114.464 257.022 113.999 257.383 113.54 L 258.04 112.706 L 257.313 112.401 C 256.913 112.233 255.664 112.085 254.538 112.073 C 252.734 112.051 252.489 111.977 252.488 111.442 C 252.488 111.068 252.135 110.69 251.571 110.46 L 250.655 110.085 L 252.773 109.381 C 254.644 108.757 254.878 108.592 254.794 107.944 C 254.739 107.532 254.986 106.892 255.358 106.48 C 256.302 105.432 256.484 104.732 255.872 104.497 C 255.526 104.365 255.019 104.668 254.332 105.417 C 252.892 106.991 251.951 106.928 251.277 105.21 C 250.931 104.329 250.862 103.782 251.072 103.572 C 251.536 103.108 251.454 102.438 250.933 102.438 C 250.089 102.438 250.137 101.899 251.145 100.037 L 252.149 98.183 L 251.306 98.735 C 250.01 99.582 249.729 99.445 249.866 98.026 C 249.932 97.332 249.91 96.766 249.817 96.766 C 249.725 96.766 249.7 95.631 249.763 94.244 C 249.841 92.544 249.765 91.724 249.529 91.724 C 249.291 91.724 249.18 93.217 249.18 96.487 L 249.18 96.487 L 249.18 96.487 L 249.18 96.487 L 249.18 96.487 Z  M 144.55 217.682 C 144.562 218.493 143.576 219.126 142.574 218.951 C 141.925 218.838 141.937 218.806 142.771 218.459 C 143.407 218.191 143.644 217.885 143.603 217.378 C 143.571 216.988 143.561 216.465 143.581 216.216 C 143.636 215.49 144.539 216.857 144.55 217.682 Z " fill-rule="evenodd" fill="rgb(6,7,6)"/></svg>