<?xml version="1.0" encoding="UTF-8" standalone="no"?><!-- Generator: Gravit.io --><svg xmlns="http://www.w3.org/2000/svg" xmlns:xlink="http://www.w3.org/1999/xlink" style="isolation:isolate" viewBox="0 0 1200 627" width="1200pt" height="627pt"><rect x="0" y="0" width="1200" height="627" transform="matrix(1,0,0,1,0,0)" fill="rgb(143,156,92)"/><g><path d=" M 592.964 100.602 C 592.939 100.633 592.357 104.246 591.668 108.628 C 589.468 122.641 588.766 126.536 586.573 136.895 C 584.917 144.713 585.507 143.905 581.151 144.335 C 571.854 145.25 565.048 148.494 558.288 155.234 L 554.093 159.416 L 553.541 155.855 C 552.671 150.233 550.486 147.939 549.742 151.864 C 549.56 152.832 549.069 154.895 548.653 156.451 C 542.332 180.12 542.853 197.482 549.821 195.271 C 550.691 194.994 550.862 194.65 550.615 193.667 C 550.217 192.074 551.521 184.513 553.188 178.756 C 557.384 164.278 567.044 152.609 579.028 147.54 C 584.332 145.298 584.755 145.534 583.736 150.182 C 583.446 151.509 582.994 153.635 582.733 154.908 C 582.472 156.181 581.907 158.84 581.475 160.82 C 581.043 162.8 580.094 167.313 579.365 170.849 C 578.638 174.383 577.831 178.201 577.572 179.332 C 575.851 186.853 574.882 191.973 575.131 192.223 C 576.558 193.649 582.481 188.293 585.259 183.067 C 587.455 178.932 587.632 178.725 589.25 178.417 C 592.037 177.884 596.12 179.998 606.376 187.294 C 612.736 191.816 616.376 192.38 622.423 189.777 C 625.561 188.428 625.548 187.816 622.38 187.816 C 617.422 187.816 616.869 187.508 609.978 180.898 C 604.743 175.875 602.984 174.5 600.975 173.859 L 598.478 173.063 L 602.995 170.086 C 618.392 159.947 624.074 151.216 619.6 144.575 C 618.318 142.674 616.66 141.966 616.66 143.318 C 616.66 145.979 609.895 155.549 604.5 160.521 C 601.007 163.738 593.88 169.306 593.252 169.306 C 593.063 169.306 592.224 169.794 591.385 170.39 C 588.692 172.307 588.944 170.093 593.261 153.88 C 602.163 120.441 602.561 102.235 594.422 100.795 C 593.644 100.658 592.987 100.57 592.964 100.602 Z " fill-rule="evenodd" fill="rgb(6,7,6)"/><path d=" M 526.933 150.577 C 508.528 160.519 496.153 175.054 496.099 186.788 C 496.032 201.602 509.345 201.311 520.832 186.25 C 523.234 183.096 523.59 183.078 523.59 186.113 C 523.59 192.216 526.962 195.199 533.817 195.163 C 540.289 195.129 543.713 193.46 538.716 192.776 C 534.651 192.218 531.758 189.584 530.307 185.116 C 528.96 180.972 533.063 169.436 539.645 158.863 L 542.145 154.847 L 540.595 153.399 C 537.645 150.643 529.806 149.025 526.933 150.577 Z  M 531.817 156.924 C 531.817 167.555 509.003 195.887 501.64 194.4 C 498.884 193.845 501.276 185.357 506.4 177.488 C 512.393 168.291 531.817 152.575 531.817 156.924 Z " fill-rule="evenodd" fill="rgb(6,7,6)"/><path d=" M 699.098 131.588 C 717.855 138.096 720.681 144.395 706.904 148.996 C 702.645 150.418 676.822 152.206 676.822 151.079 C 676.822 150.067 686.653 131.147 687.955 129.656 C 688.898 128.576 691.935 129.102 699.098 131.588 L 699.098 131.588 Z  M 686.893 124.956 C 686.682 125.168 682.999 125.485 678.709 125.658 C 670.73 125.984 666.336 126.68 664.701 127.876 C 663.933 128.437 665.369 128.506 673.312 128.288 C 684.484 127.982 684.173 127.782 680.707 133.055 C 676.214 139.892 668.449 154.544 665.034 162.62 C 664.377 164.177 663.432 166.374 662.935 167.506 C 659.961 174.259 655.225 188.995 655.225 191.494 C 655.225 193.453 692.261 192.56 703.561 190.329 C 720.152 187.053 725.144 182.876 721.616 175.218 C 718.334 168.093 695.075 156.519 683.886 156.442 C 682.954 156.436 682.882 156.339 683.508 155.936 C 683.931 155.662 687.516 155.434 691.476 155.43 C 713.646 155.403 724.642 151.909 724.642 144.895 C 724.642 138.256 711.003 129.98 694.819 126.799 C 692.697 126.38 690.326 125.915 689.548 125.762 C 688.772 125.606 688.135 125.276 688.135 125.026 C 688.135 124.47 687.417 124.428 686.893 124.956 L 686.893 124.956 Z  M 682.059 159.495 C 700.794 164.33 712.816 170.57 712.816 175.458 C 712.816 181.931 700.774 185.402 675.877 186.104 L 663.821 186.443 L 664.192 184.43 C 664.854 180.846 668.932 168.797 672.055 161.207 C 673.65 157.326 673.656 157.326 682.059 159.495 Z " fill-rule="evenodd" fill="rgb(6,7,6)"/><path d=" M 748.038 163.103 C 737.688 165.634 725.319 178.894 724.734 188.088 C 723.524 207.095 754.972 212.852 771.417 196.632 C 785.837 182.41 768.832 158.019 748.038 163.103 Z  M 764.11 170.527 C 772.062 174.561 772.02 185.748 764.024 192.742 C 753.723 201.754 735.184 202.969 731.013 194.904 C 727.286 187.699 741.15 172.619 754.724 169.117 C 756.821 168.575 761.707 169.31 764.11 170.527 Z " fill-rule="evenodd" fill="rgb(6,7,6)"/><path d=" M 472.084 141.021 C 476.363 142.384 477.607 143.653 477.07 146.101 C 476.496 148.713 469.549 154.523 463.943 157.081 C 456.85 160.318 455.025 161.122 451.601 162.507 C 445.444 165.004 441.716 166.278 441.424 165.985 C 441.026 165.587 443.163 157.083 446.83 144.472 C 447.307 142.832 448.022 141.221 448.42 140.888 C 450.602 139.08 466.276 139.167 472.084 141.021 L 472.084 141.021 Z  M 451.664 136.778 C 448.258 137.377 447.275 137.401 446.965 136.895 C 446.675 136.427 446.432 136.515 446.051 137.226 C 445.737 137.813 444.241 138.569 442.268 139.136 C 437.935 140.384 426.934 145.795 425.393 147.435 C 423.839 149.09 424.588 149.079 428.32 147.399 C 433.04 145.271 433.107 145.246 438.128 143.547 C 443.608 141.698 443.865 141.766 442.621 144.746 C 442.119 145.952 441.514 147.401 441.278 147.966 C 434.484 164.231 424.99 213.012 428.619 213.012 C 429.982 213.012 446.558 207.412 451.345 205.334 C 452.474 204.843 455.831 203.435 458.8 202.204 C 489.712 189.388 499.154 177.161 483.364 170.395 C 477.717 167.974 462.845 166.928 452.47 168.221 C 448.222 168.752 448.423 168.12 453.025 166.462 C 476.208 158.123 485.474 152.303 485.94 145.79 C 486.525 137.624 470.654 133.451 451.664 136.778 L 451.664 136.778 Z  M 472.019 172.617 C 489.922 176.383 479.162 188.032 446.202 200.571 C 441.676 202.292 437.309 203.86 436.495 204.058 L 435.012 204.416 L 435.366 199.329 C 435.559 196.533 435.928 192.972 436.185 191.415 C 436.441 189.861 437.012 186.158 437.453 183.188 C 438.331 177.285 439.215 173.443 439.712 173.375 C 451.678 171.724 466.159 171.384 472.019 172.617 Z " fill-rule="evenodd" fill="rgb(6,7,6)"/><path d=" M 285.389 186.403 C 283.385 187.944 282.114 202.85 283.67 206.566 C 285.346 210.566 288.282 211.961 288.856 209.028 C 289.222 207.14 291.099 199.838 291.794 197.586 C 293.112 193.318 292.916 188.052 291.396 186.855 C 289.828 185.622 286.707 185.388 285.389 186.403 Z " fill-rule="evenodd" fill="rgb(6,7,6)"/><path d=" M 808.972 182.201 C 792.345 185.82 780.791 195.224 780.278 205.556 C 779.657 218.031 791.771 220.811 805.823 211.419 L 807.557 210.26 L 807.17 211.475 C 805.796 215.806 807.382 222.136 810.322 224.062 C 815.447 227.421 821.827 229.295 821.827 227.443 C 821.827 227.211 821.163 226.746 820.353 226.411 C 816.805 224.942 813.591 219.574 813.611 215.156 C 813.633 210.416 817.548 204.423 825.705 196.634 C 831.878 190.74 831.846 190.835 828.762 187.404 C 823.077 181.083 819.019 180.014 808.972 182.201 Z  M 821.314 188.389 C 821.314 189.656 817.694 195.267 814.637 198.74 C 809.352 204.744 794.206 212.485 787.727 212.497 C 783.423 212.501 782.852 210.913 785.355 205.905 C 789.751 197.107 803.033 190.185 820.927 187.364 C 821.141 187.33 821.314 187.791 821.314 188.389 Z " fill-rule="evenodd" fill="rgb(6,7,6)"/><path d=" M 372.158 186.081 C 371.591 186.194 369.856 186.536 368.299 186.842 C 354.518 189.559 339.011 219.47 345.148 231.501 C 353.047 246.981 387.507 225.715 391.957 202.614 C 392.431 200.144 391.921 200.506 389.916 204.06 C 375.636 229.36 345.985 242.819 351.501 221.497 L 352.167 218.926 L 355.767 218.602 C 367.971 217.5 387.975 194.666 382.182 188.448 C 380.474 186.614 375.46 185.431 372.158 186.081 Z  M 374.47 190.799 C 380.726 193.847 367.271 211.475 356.1 214.868 C 352.921 215.833 352.925 215.189 356.147 208.715 C 362.878 195.183 369.726 188.488 374.47 190.799 Z " fill-rule="evenodd" fill="rgb(6,7,6)"/><path d=" M 839.205 192.097 C 831.334 204.645 824.562 222.897 825.642 228.656 C 826.337 232.363 830.569 235.015 830.569 231.742 C 830.569 229.875 835.259 220.204 838.087 216.24 C 846.388 204.609 855.54 199.865 868.936 200.247 C 876.286 200.456 876.414 200.321 870.934 198.106 C 867.854 196.862 866.471 196.508 862.963 196.072 C 856.264 195.24 849.727 196.477 844.226 199.626 L 841.567 201.147 L 841.785 196.585 C 842.08 190.387 841.219 188.887 839.205 192.097 Z " fill-rule="evenodd" fill="rgb(6,7,6)"/><path d=" M 933.091 198.744 C 927.224 204.796 925.207 209.698 926.709 214.249 C 927.548 216.796 928.109 216.96 929.983 215.205 C 930.878 214.366 933.517 212.249 935.85 210.497 C 942.549 205.466 943.566 199.921 938.443 196.335 C 936.734 195.136 936.477 195.253 933.091 198.744 Z " fill-rule="evenodd" fill="rgb(6,7,6)"/><path d=" M 324.247 204.751 C 317.802 207.073 312.52 212.346 310.347 218.629 C 309.235 221.844 308.52 222.012 308.032 219.171 C 307.053 213.507 302.889 210.949 297.211 212.526 C 295.332 213.048 294.55 214.042 296.014 214.042 C 297.098 214.042 299.827 216.501 300.786 218.346 C 302.698 222.012 303.078 225.74 303.357 243.548 L 303.631 260.972 L 307.17 260.675 C 312.085 260.263 311.813 260.839 311.422 251.667 C 311.089 243.879 311.672 233.942 312.738 229.209 C 315.041 218.975 317.118 213.891 320.488 210.233 C 324.211 206.195 325.185 207.615 326.731 219.344 C 327.756 227.121 327.768 229.128 326.852 241.6 L 326.508 246.277 L 328.863 246.871 C 332.67 247.829 333.131 247.694 334.069 245.348 C 338.184 235.065 337.239 213.687 332.361 206.731 C 330.26 203.732 328.362 203.271 324.247 204.751 Z " fill-rule="evenodd" fill="rgb(6,7,6)"/><path d=" M 915.799 184.304 C 913.659 186.817 908.303 193.721 898.544 206.544 L 894.787 211.48 L 892.499 209.907 C 888.834 207.385 886.243 206.413 883.86 206.67 C 860.754 209.158 843.288 227.988 854.543 238.275 C 860.766 243.962 867.557 243.926 877.8 238.151 C 881.168 236.25 881.242 236.316 880.23 240.262 C 877.865 249.494 883.435 256.913 891.583 255.386 C 894.443 254.848 894.078 253.784 890.945 253.523 C 879.476 252.574 886.295 235.461 910.73 203.858 C 928.918 180.338 927.8 182.664 921.272 181.922 L 918.134 181.562 L 915.799 184.304 Z  M 891.197 212.946 C 899.061 215.149 872.216 237.18 861.67 237.18 C 847.954 237.18 865.548 216.892 882.76 212.859 C 884.308 212.497 889.79 212.553 891.197 212.946 Z " fill-rule="evenodd" fill="rgb(6,7,6)"/><path d=" M 255.892 215.347 C 228.241 221.419 189.851 253.928 192.159 269.32 C 193.059 275.327 197.349 274.179 197.682 267.847 C 198.699 248.466 237.688 219.209 262.528 219.187 C 276.147 219.173 271.565 229.054 248.205 250.063 C 246.493 251.604 244.063 253.793 242.806 254.931 C 241.55 256.068 238.923 258.382 236.97 260.074 L 233.422 263.147 L 233.767 256.463 C 234.851 235.531 234.729 227.382 233.411 232.68 C 230.547 244.198 229.087 251.633 228.392 258.263 C 228.05 261.514 227.708 264.639 227.634 265.203 C 227.558 265.77 227.474 266.722 227.452 267.32 C 227.423 268.076 225.06 270.312 219.695 274.665 C 212.197 280.751 210.485 282.548 213.396 281.277 C 215.333 280.431 220.975 277.025 223.938 274.915 C 225.283 273.957 226.556 273.176 226.768 273.176 C 226.979 273.178 227.186 276.823 227.229 281.275 C 227.335 292.523 228.849 302.356 231.357 308.102 C 232.948 311.746 233.807 311.08 233.004 306.828 C 232.19 302.518 232.689 268.848 233.582 267.77 C 233.933 267.349 237.951 264.288 242.513 260.969 C 257.651 249.953 268.924 239.897 273.36 233.459 C 282.183 220.645 273.374 211.511 255.892 215.347 Z " fill-rule="evenodd" fill="rgb(6,7,6)"/><path d=" M 285.306 222.726 C 284.692 222.966 283.907 224.345 283.205 226.417 C 282.588 228.235 281.945 230.071 281.778 230.496 C 281.61 230.919 280.896 233.697 280.195 236.667 C 275.781 255.309 277.29 265.723 284.86 268.886 C 290.849 271.388 300.392 259.905 300.419 250.164 C 300.43 245.71 299.42 246.907 297.299 253.865 C 296.005 258.106 292.273 263.404 290.579 263.404 C 286.176 263.404 286.161 239.953 290.554 226.021 C 291.108 224.267 291.434 222.705 291.279 222.55 C 290.874 222.143 286.46 222.273 285.306 222.726 Z " fill-rule="evenodd" fill="rgb(6,7,6)"/><path d=" M 917.187 223.873 C 898.978 233.49 890.621 253.188 901.192 261.579 C 905.7 265.156 916.332 262.488 919.087 257.087 C 920.478 254.362 920.046 254.218 916.847 256.337 C 909.949 260.906 904.613 261.032 904.613 256.625 C 904.613 250.27 912.944 237.872 921.812 231.031 C 925.092 228.5 925.168 228.237 923.252 226.064 C 920.572 223.02 919.522 222.64 917.187 223.873 Z " fill-rule="evenodd" fill="rgb(6,7,6)"/><path d=" M 932.963 228.262 C 935.364 235.533 931.506 245.409 919.04 263.919 C 915.83 268.686 915.83 268.751 919.157 272.035 C 922.894 275.725 922.455 275.961 926.972 267.847 C 934.626 254.101 944.221 245.442 951.826 245.415 C 957.426 245.395 957.493 247.458 952.288 259.291 C 949.91 264.699 943.75 274.292 941.413 276.233 C 939.746 277.615 942.698 285 944.916 285 C 951.181 285 962.719 265.246 962.719 254.52 C 962.719 244.511 950.178 237.798 940.877 242.831 C 937.8 244.495 937.647 244.408 938.808 241.629 C 940.752 236.982 939.305 231.241 935.249 227.504 C 932.176 224.669 931.818 224.786 932.963 228.262 Z " fill-rule="evenodd" fill="rgb(6,7,6)"/><path d=" M 720.231 223.095 C 723.232 224.246 717.997 234.302 709.459 243.778 C 707.59 245.852 706.89 246.342 706.584 245.791 C 706.157 245.029 706.814 237.144 707.453 235.38 C 710.101 228.066 716.685 221.736 720.231 223.095 L 720.231 223.095 Z  M 715.871 221.943 C 707.826 224.111 702.6 233.558 703.145 244.945 L 703.374 249.764 L 701.098 252.56 C 696.578 258.108 695.019 264.913 697.626 267.712 C 699.39 269.606 705.635 269.547 708.924 267.606 C 711.486 266.096 711.682 266.146 714.539 269.059 C 721.124 275.777 730.813 276.517 730.813 270.303 C 730.813 268.281 729.47 267.291 728.667 268.724 C 727.706 270.44 722.42 268.45 718.287 264.814 L 716.301 263.068 L 719.124 260.657 C 723.967 256.517 726.833 251.633 725.495 249.8 C 724.599 248.578 722.071 249.08 722.071 250.482 C 722.071 251.357 716.685 258.112 714.661 259.775 C 713.372 260.835 712.402 260.063 710.116 256.16 C 707.572 251.818 707.639 251.377 711.448 247.465 C 721.427 237.209 726.471 224.708 721.866 221.635 C 721.047 221.088 718.566 221.214 715.871 221.943 L 715.871 221.943 Z  M 705.637 255.883 C 705.649 256.202 706.555 257.966 707.651 259.804 C 709.907 263.584 709.736 264.285 706.209 265.761 C 700.627 268.092 698.112 265.574 700.488 260.031 C 702.396 255.584 705.543 253.048 705.637 255.883 Z " fill-rule="evenodd" fill="rgb(6,7,6)"/><path d=" M 974.03 269.284 C 948.954 276.272 960.533 307.301 986.752 303.373 C 990.572 302.802 991.542 302.995 990.624 304.142 C 990.336 304.502 989.229 306.417 988.165 308.396 C 978.496 326.38 971.239 330.227 958.411 324.173 C 946.925 318.751 942.765 310.291 948.87 304.765 C 950.812 303.008 947.201 302.221 944.234 303.755 C 937.591 307.193 941.397 317.991 951.707 324.951 C 968.442 336.251 980.314 336.391 987.308 325.365 C 997.609 309.123 1009.606 282.044 1007.748 279.221 C 1002.439 271.149 985.38 266.121 974.03 269.284 Z  M 995.969 275.286 C 1000.47 276.382 1001.195 278.472 999.118 284.395 C 995.348 295.157 990.201 298.309 977.313 297.751 C 966.1 297.265 961.52 292.633 964.958 285.252 C 966.987 280.895 975.868 275.88 981.891 275.693 C 982.8 275.666 984.122 275.473 984.829 275.266 C 986.984 274.634 993.337 274.645 995.969 275.286 Z " fill-rule="evenodd" fill="rgb(6,7,6)"/><path d=" M 856.046 291.54 C 854.116 296.431 853.7 302.253 855.148 304.028 L 856.199 305.312 L 856.707 304.028 C 856.986 303.319 858.077 300.889 859.128 298.628 C 861.926 292.613 861.733 289.342 858.521 288.381 C 857.549 288.091 857.258 288.46 856.046 291.54 Z " fill-rule="evenodd" fill="rgb(6,7,6)"/><path d=" M 709.988 293.978 C 709.705 294.062 708.434 294.442 707.16 294.822 C 696.891 297.884 684.203 310.767 681.962 320.403 C 676.738 342.879 700.492 351.949 719.173 334.611 C 721.754 332.218 721.823 332.384 720.53 337.781 C 718.975 344.271 718.973 348.393 720.528 350.046 C 722.053 351.67 722.136 351.562 722.348 347.691 C 722.791 339.536 726.428 328.47 730.095 324.11 L 731.486 322.459 L 729.904 320.877 L 728.323 319.296 L 723.783 320.126 C 716.071 321.537 711.171 322.047 705.192 322.065 C 699.134 322.081 698.146 322.799 701.619 324.657 C 703.592 325.712 717.81 324.49 724.075 322.724 C 727.466 321.77 724.28 326.708 718.435 331.462 C 706.758 340.964 691.298 342.397 687.031 334.373 C 680.781 322.621 699.026 298.73 714.294 298.671 C 719.288 298.651 723.614 301.18 723.614 304.115 C 723.614 305.861 724.296 305.983 725.385 304.426 C 728.809 299.537 717.362 291.769 709.988 293.978 Z " fill-rule="evenodd" fill="rgb(6,7,6)"/><path d=" M 811.501 308.862 C 813.552 311.334 812.983 315.906 808.752 330.873 C 805.479 342.447 805.472 342.521 807.215 343.794 C 809.037 345.119 809.681 344.658 810.423 341.493 C 813.46 328.567 816.511 321.123 820.333 317.298 C 823.046 314.585 824.232 314.212 824.504 315.982 C 824.834 318.131 822.825 326.573 820.198 334.072 C 819.114 337.163 818.227 339.759 818.227 339.842 C 818.227 340.094 821.224 341.563 821.734 341.563 C 821.995 341.563 823.534 337.572 825.152 332.692 C 828.657 322.13 830.047 319.143 832.638 316.612 L 834.584 314.711 L 835.462 316.05 C 837.383 318.981 837.072 325.37 834.184 342.485 C 833.84 344.517 833.925 344.771 835.27 345.731 C 837.075 347.014 837.549 346.753 837.918 344.276 C 838.078 343.207 838.701 340.137 839.304 337.45 C 843.423 319.118 839.273 307.645 830.848 314.072 C 829.831 314.848 828.936 315.393 828.857 315.283 C 828.778 315.172 828.317 314.446 827.831 313.667 C 825.975 310.702 820.7 312.133 817.433 316.493 L 815.915 318.515 L 815.656 314.412 C 815.433 310.83 815.237 310.174 814.115 309.242 C 812.605 307.989 810.527 307.685 811.501 308.862 Z " fill-rule="evenodd" fill="rgb(6,7,6)"/><path d=" M 859.992 310.756 C 861.056 312.198 861.164 312.902 861.157 318.342 C 861.15 324.326 860.894 326.119 858.55 336.56 C 856.97 343.592 856.961 343.461 859.162 344.382 C 861.438 345.333 861.814 345.126 862.199 342.703 C 862.365 341.653 862.705 339.867 862.955 338.735 C 863.202 337.603 863.782 334.942 864.244 332.823 C 866.576 322.083 873.37 310.896 874.992 315.125 C 875.892 317.469 874.488 329.68 872.549 336.377 C 871.249 340.863 871.697 342.429 874.356 342.717 C 879.388 343.266 882.421 316.317 877.701 313.013 C 874.947 311.082 869.595 312.893 866.959 316.644 L 865.278 319.037 L 865.008 316.032 C 864.685 312.437 863.956 310.983 861.944 309.946 C 859.366 308.61 858.633 308.916 859.992 310.756 Z " fill-rule="evenodd" fill="rgb(6,7,6)"/><path d=" M 748.639 311.508 C 746.063 312.45 741.926 315.51 740.248 317.71 C 738.482 320.025 738.187 319.921 737.895 316.871 C 737.452 312.254 736.343 312.794 735.166 318.2 C 731.445 335.286 731.144 345.162 734.338 345.162 C 735.092 345.162 735.373 344.404 735.913 340.922 C 738.073 326.976 743.825 317.091 752.185 312.959 C 754.288 311.919 756.009 310.988 756.009 310.891 C 756.009 310.403 750.362 310.875 748.639 311.508 Z " fill-rule="evenodd" fill="rgb(6,7,6)"/><path d=" M 850.962 314.182 C 843.268 326.375 841.657 340.321 847.585 343.387 C 850.147 344.712 854.827 341.225 856.552 336.706 C 857.803 333.435 857.31 331.959 855.884 334.695 C 854.489 337.367 851.538 340.535 850.444 340.535 C 847.693 340.535 850.316 325.656 854.541 317.285 C 856.026 314.344 856.068 313.481 854.77 312.785 C 853.07 311.877 852.221 312.187 850.962 314.182 Z " fill-rule="evenodd" fill="rgb(6,7,6)"/><path d=" M 759.541 312.772 C 753.629 315.894 747.575 326.501 747.627 333.635 C 747.762 351.324 774.919 343.151 775.959 325.109 C 776.494 315.831 767.104 308.777 759.541 312.772 Z  M 769.819 317.141 C 776.287 323.334 766.213 340.022 756.004 340.022 C 750.288 340.022 749.386 334.762 753.748 326.832 C 759.005 317.276 765.727 313.222 769.819 317.141 Z " fill-rule="evenodd" fill="rgb(6,7,6)"/><path d=" M 790.561 312.567 C 782.539 316.677 775.837 332.294 779.295 338.818 C 784.735 349.081 802.673 341.871 806.365 327.937 C 807.024 325.451 807.078 321.824 806.475 320.603 C 804.104 315.802 802.97 314.441 800.097 312.956 C 797.681 311.706 792.644 311.501 790.561 312.567 Z  M 800.124 316.713 C 806.012 320.389 800.716 334.47 791.875 338.652 C 782.98 342.861 779.23 337.819 783.943 327.986 C 788.581 318.308 795.247 313.665 800.124 316.713 Z " fill-rule="evenodd" fill="rgb(6,7,6)"/><path d=" M 899.986 312.983 C 890.042 316.185 881.879 326.837 882.612 335.657 C 883.316 344.159 893.052 345.601 899.977 338.231 C 902.305 335.752 902.508 336.751 901.304 344.775 C 899.421 357.324 895.307 362.541 886.888 363.06 C 881.78 363.373 880.169 361.922 880.259 357.085 C 880.338 352.93 880.036 352.647 878.158 355.11 C 873.656 361.013 879.143 366.775 888.578 366.048 C 899.567 365.204 903.498 360.426 905.333 345.677 C 907.711 326.603 907.979 314.063 906.028 313.346 C 903.806 312.529 901.772 312.407 899.986 312.983 Z  M 902.877 317.204 C 904.404 323.291 901.799 331.547 896.924 336.06 C 884.103 347.932 881.028 335.352 893.52 322.137 C 899.462 315.852 902.177 314.421 902.877 317.204 Z " fill-rule="evenodd" fill="rgb(6,7,6)"/><path d=" M 509.745 400.51 C 510.429 401.255 511.966 402.303 513.156 402.838 C 518.092 405.059 516.677 405.594 504.049 406.28 C 490.662 407.009 488.108 407.021 488.108 406.352 C 488.108 406.071 488.927 405.839 489.926 405.839 C 491.064 405.839 491.852 405.552 492.036 405.068 C 492.201 404.643 492.572 404.296 492.864 404.296 C 493.157 404.296 493.67 403.921 494.005 403.462 C 494.461 402.836 495.676 402.584 498.832 402.458 C 502.524 402.312 503.316 402.101 505.219 400.767 C 507.937 398.861 508.213 398.845 509.745 400.51 L 509.745 400.51 L 509.745 400.51 L 509.745 400.51 L 509.745 400.51 Z  M 520.638 400.71 C 523.295 401.981 526.541 404.6 526.058 405.086 C 525.862 405.279 524.161 405.563 522.276 405.713 L 518.848 405.988 L 519.18 404.465 C 519.426 403.354 519.239 402.591 518.485 401.633 C 517.916 400.911 517.599 400.173 517.779 399.995 C 518.224 399.547 518.186 399.538 520.638 400.71 L 520.638 400.71 L 520.638 400.71 L 520.638 400.71 Z  M 422.235 402.368 C 424.021 407.158 422.815 410.579 419.893 409.016 C 417.63 407.806 417.267 402.577 419.386 401.723 C 421.17 401.003 421.776 401.14 422.235 402.368 L 422.235 402.368 L 422.235 402.368 Z  M 451.572 406.582 C 450.53 408.298 449.66 409.245 449.376 408.962 C 449.093 408.679 449.57 407.335 450.573 405.581 C 451.718 403.581 452.404 402.836 452.769 403.201 C 453.133 403.565 452.76 404.622 451.572 406.582 L 451.572 406.582 Z  M 598.662 211.016 L 598.662 218.789 L 597.378 218.544 C 596.672 218.409 596.091 218.496 596.091 218.739 C 596.091 218.984 596.28 219.182 596.507 219.182 C 598.395 219.182 598.68 220.519 597.214 222.485 C 595.691 224.53 595.65 225.18 596.818 228.824 C 597.092 229.675 596.986 229.981 596.42 229.981 C 595.994 229.981 595.499 229.52 595.322 228.953 C 595.142 228.388 594.676 227.925 594.287 227.925 C 593.898 227.925 593.239 227.439 592.825 226.847 L 592.069 225.767 L 591.5 226.831 C 591.02 227.724 591.218 228.296 592.739 230.413 C 594.622 233.033 595.043 234.608 593.857 234.608 C 593.083 234.608 591.774 233.247 591.326 231.974 C 590.975 230.975 587.875 230.386 587.543 231.254 C 587.417 231.58 587.668 232.527 588.1 233.357 C 589.88 236.768 588.82 238.959 586.271 237.144 L 584.685 236.014 L 585.369 237.112 C 585.747 237.715 586.238 238.208 586.458 238.208 C 586.681 238.208 587.081 238.788 587.351 239.494 C 587.619 240.201 588.049 240.779 588.307 240.779 C 589.376 240.779 590.028 245.022 589.236 246.822 C 588.609 248.25 587.864 248.327 587.864 246.965 C 587.864 246.255 587.365 245.82 586.193 245.51 C 584.836 245.152 584.526 244.817 584.541 243.717 C 584.559 242.453 584.429 242.376 582.573 242.556 C 580.033 242.799 579.68 243.182 581.084 244.162 C 582.573 245.206 582.62 247.465 581.149 247.465 C 580.569 247.465 580.204 247.649 580.344 247.874 C 580.483 248.099 580.407 248.596 580.17 248.977 C 579.433 250.171 580.587 252.347 582.35 253.078 C 583.608 253.6 583.79 253.82 583.108 253.996 C 582.006 254.277 581.934 255.105 582.98 255.505 C 583.403 255.669 583.752 256.223 583.752 256.738 C 583.752 257.251 584.096 257.748 584.519 257.84 C 585.201 257.986 585.201 258.171 584.519 259.478 C 583.462 261.507 583.52 261.719 585.423 262.686 C 587.621 263.804 587.599 263.773 586.847 264.677 C 586.037 265.653 583.905 265.66 582.209 264.69 C 580.456 263.689 580.02 263.741 580.629 264.882 C 582.038 267.509 582.143 270.015 580.881 270.841 C 579.212 271.934 578.661 271.837 578.094 270.346 C 577.826 269.64 577.426 269.043 577.208 269.021 C 575.835 268.886 574.805 268.531 573.716 267.817 C 572.087 266.751 571.41 266.789 571.41 267.952 C 571.41 268.985 572.927 270.602 573.894 270.602 C 574.225 270.602 574.495 270.834 574.495 271.118 C 574.495 271.401 574.148 271.633 573.725 271.633 C 572.461 271.633 572.85 272.616 574.254 272.967 C 575.203 273.205 575.478 273.54 575.266 274.202 C 575.059 274.854 575.482 275.41 576.767 276.166 C 578.4 277.131 578.53 277.378 578.26 279.043 C 577.997 280.661 578.114 280.922 579.316 281.376 C 580.058 281.659 580.665 282.235 580.665 282.658 C 580.665 283.162 580.96 283.313 581.52 283.099 C 582.197 282.838 582.314 283.002 582.083 283.887 C 581.858 284.741 582.017 285 582.771 285 C 583.311 285 583.752 285.207 583.752 285.459 C 583.752 286.971 575.208 286.235 572.897 284.528 C 571.167 283.248 570.297 283.151 570.733 284.289 C 571.01 285.014 570.715 285.072 568.403 284.755 C 566.785 284.532 565.755 284.584 565.755 284.888 C 565.755 285.162 565.08 285.522 564.254 285.686 C 562.531 286.03 562.556 288.019 564.29 288.471 C 564.936 288.64 565.24 289.193 565.24 290.199 C 565.24 291.146 565.624 291.909 566.31 292.325 C 570.061 294.588 569.374 299.859 565.568 298.044 C 563.858 297.229 563.683 297.234 562.315 298.129 L 560.869 299.076 L 562.493 299.497 C 563.75 299.823 564.056 300.138 563.856 300.901 C 563.627 301.782 563.818 301.857 565.717 301.6 C 568.034 301.29 568.398 302.743 566.097 303.121 C 565.15 303.278 565.264 303.429 566.871 304.138 C 567.91 304.594 569.17 305.625 569.671 306.426 C 570.173 307.227 570.65 307.973 570.729 308.086 C 570.807 308.196 571.23 307.989 571.671 307.625 C 572.76 306.72 575.156 307.771 574.913 309.047 C 574.666 310.36 571.658 310.471 568.866 309.271 C 566.751 308.363 560.371 306.597 559.199 306.597 C 558.515 306.597 558.781 308.815 559.496 309.053 C 559.827 309.163 560.097 309.784 560.097 310.435 C 560.097 311.82 560.855 312.551 562.801 313.04 C 563.577 313.235 564.211 313.717 564.211 314.108 C 564.211 314.97 564.409 314.972 561.897 314.068 C 559.667 313.265 554.956 313.019 554.956 313.708 C 554.956 313.939 555.535 314.675 556.241 315.339 C 556.947 316.002 557.528 316.956 557.528 317.456 C 557.528 317.955 557.784 318.522 558.101 318.718 C 558.446 318.931 558.576 319.948 558.425 321.271 L 558.178 323.471 L 560.533 324.13 L 562.891 324.789 L 561.366 325.44 L 559.84 326.092 L 562.061 326.115 C 564.643 326.142 566.268 326.868 566.268 328 C 566.268 328.954 561.314 328.771 557.627 327.68 C 555.87 327.161 555.13 327.156 554.03 327.658 L 552.646 328.288 L 553.769 329.199 C 554.579 329.853 554.736 330.265 554.336 330.666 C 553.933 331.068 554.291 331.529 555.611 332.308 C 556.644 332.917 557.676 334.051 557.973 334.906 C 558.338 335.948 558.846 336.422 559.604 336.422 C 560.254 336.422 560.812 336.821 560.963 337.394 C 561.165 338.17 561.885 338.44 564.515 338.721 C 571.712 339.491 566.326 342.591 557.789 342.591 C 554.302 342.591 552.385 342.787 552.385 343.14 C 552.385 343.448 552.819 343.551 553.37 343.376 C 554.651 342.971 555.357 344.112 554.302 344.883 C 553.415 345.533 554.615 346.705 556.162 346.705 C 556.551 346.705 557.674 347.252 558.657 347.918 C 559.64 348.586 562.009 349.443 563.921 349.823 C 571.334 351.297 564.637 351.763 554.579 350.474 C 550.837 349.994 547.614 349.763 547.416 349.961 C 546.982 350.395 549.987 353.637 552.129 355.043 L 553.67 356.057 L 550.147 355.767 L 546.622 355.477 L 547.377 356.617 C 547.791 357.247 548.633 357.837 549.245 357.927 C 550.097 358.055 550.322 358.399 550.212 359.411 C 550.093 360.534 550.385 360.844 552.21 361.519 C 554.259 362.277 554.336 362.385 554.059 364.093 L 553.769 365.875 L 555.519 365.571 C 562.686 364.331 563.514 364.572 560.356 366.981 C 558.644 368.286 558.414 368.327 555.634 367.814 C 554.025 367.517 551.973 367.274 551.074 367.274 C 550.172 367.274 547.859 366.466 545.933 365.481 C 541.589 363.254 541.402 363.425 544.172 367.094 C 545.389 368.707 546.385 370.333 546.385 370.707 C 546.385 371.08 546.768 371.386 547.231 371.386 C 547.697 371.386 548.72 372.057 549.503 372.873 C 550.286 373.692 551.602 374.495 552.428 374.662 C 555.445 375.265 554.403 377.044 551.229 376.711 C 547.674 376.335 544.671 375.566 544.671 375.033 C 544.671 374.797 543.776 374.628 542.68 374.657 C 541.265 374.693 539.911 374.223 537.987 373.029 C 536.5 372.104 535.178 371.454 535.047 371.586 C 534.575 372.057 535.538 374.061 537.076 375.814 C 538.485 377.415 538.584 377.741 538.032 378.947 C 537.432 380.27 537.875 381.125 539.18 381.15 C 539.409 381.154 539.452 381.62 539.272 382.185 C 539.022 382.974 539.18 383.215 539.954 383.215 C 540.509 383.215 541.094 383.557 541.254 383.977 C 541.612 384.904 547.674 387.842 549.231 387.842 C 550.178 387.842 550.297 388.045 550.012 389.183 C 549.697 390.429 549.753 390.481 550.792 389.926 C 551.407 389.597 552.345 389.464 552.876 389.633 C 553.528 389.84 554.106 389.559 554.664 388.765 L 555.487 387.588 L 557.114 389.329 C 558.684 391.01 558.767 391.035 559.555 390.099 C 561.456 387.831 562.054 387.638 563.334 388.868 C 565.838 391.278 568.933 391.651 571.426 389.845 C 572.029 389.408 572.76 389.53 574.519 390.357 L 576.825 391.442 L 579.646 390.348 C 583.927 388.69 585.684 388.538 585.894 389.804 C 586.056 390.787 586.175 390.803 588.123 390.121 C 590.683 389.224 594.399 389.181 596.305 390.027 L 597.749 390.67 L 597.441 397.048 C 597.272 400.555 596.995 403.563 596.827 403.732 C 596.586 403.975 563.107 404.654 533.616 405.016 C 530.033 405.061 529.522 404.955 529.646 404.202 C 529.725 403.727 529.182 402.917 528.442 402.402 C 524.773 399.858 524.208 399.028 523.864 395.667 L 523.534 392.436 L 524.847 392.767 C 525.81 393.008 526.161 392.893 526.161 392.339 C 526.161 391.923 527.185 391.041 528.438 390.375 C 529.691 389.712 530.595 388.974 530.451 388.74 C 530.305 388.504 530.516 387.8 530.919 387.176 C 531.324 386.553 531.817 385.348 532.017 384.499 C 532.217 383.651 532.492 382.58 532.627 382.122 C 532.937 381.073 529.491 381.597 526.042 383.12 C 524.834 383.654 523.383 384.274 522.818 384.499 C 522.253 384.724 518.665 385.082 514.848 385.291 C 511.03 385.503 506.283 385.95 504.301 386.288 L 500.697 386.9 L 495.685 384.542 C 492.929 383.246 490.212 382.185 489.645 382.185 C 489.08 382.185 488.113 381.606 487.499 380.9 C 486.192 379.397 485.269 379.267 484.586 380.491 C 484.169 381.235 483.969 381.262 483.263 380.673 C 482.241 379.827 482.309 379.741 481.222 383.291 C 480.734 384.891 479.884 386.603 479.337 387.1 C 478.073 388.243 478.064 389.228 479.312 389.624 C 479.848 389.793 480.412 390.418 480.568 391.014 C 480.804 391.912 481.117 392.042 482.424 391.781 C 483.888 391.489 483.996 391.568 483.996 392.963 C 483.996 393.786 484.228 395.068 484.509 395.813 C 485.368 398.067 483.497 399.693 477.193 402.17 C 474.388 403.273 475.958 404.472 479.704 404.087 C 483.346 403.714 483.906 404.278 481.809 406.215 C 480.615 407.317 478.059 407.592 458.674 408.681 C 452.474 409.029 452.528 409.079 455.032 405.333 C 455.691 404.348 456.233 403.309 456.238 403.021 C 456.292 400.022 463.119 398.119 463.65 400.953 C 464.022 402.931 464.912 403.34 465.335 401.725 C 465.704 400.317 466.336 400.434 466.723 401.981 C 466.901 402.69 467.419 403.268 467.873 403.268 C 469.025 403.268 468.433 400.526 466.759 398.112 C 466.058 397.1 465.484 396.065 465.484 395.813 C 465.484 395.559 464.879 394.479 464.139 393.41 C 462.863 391.57 462.733 390.479 463.479 387.905 C 463.592 387.516 463.405 387.095 463.061 386.969 C 462.703 386.839 462.298 387.359 462.114 388.191 C 461.936 388.99 461.698 389.989 461.585 390.414 C 461.421 391.041 457.223 394.013 456.501 394.013 C 456.391 394.013 456.227 393.505 456.137 392.886 C 455.943 391.566 452.87 390.481 451.943 391.408 C 451.055 392.297 450.263 392.042 449.637 390.67 C 448.396 387.946 446.56 389.424 447.547 392.351 C 447.903 393.406 448.139 394.859 448.069 395.579 C 448.002 396.299 448.434 397.509 449.032 398.267 C 450.103 399.628 450.105 399.693 449.223 402.872 C 447.361 409.576 447.554 409.466 436.56 410.154 L 431.033 410.498 L 431.017 409.068 C 431.008 408.283 430.659 407.189 430.245 406.64 C 429.208 405.27 429.298 403.606 430.518 401.61 C 431.082 400.683 431.544 399.39 431.546 398.735 C 431.548 396.737 432.484 395.554 434.061 395.554 C 438.628 395.554 441.536 388.981 438.049 386.538 C 436.198 385.242 435.519 385.561 436.419 387.302 C 438.738 391.786 434.047 395.104 429.042 392.522 C 428.581 392.283 424.25 391.97 419.42 391.824 L 410.633 391.561 L 407.13 389.701 C 402.431 387.208 401.815 387.278 398.958 390.623 C 396.24 393.806 396.103 394.294 397.819 394.726 C 398.784 394.967 398.994 395.282 398.766 396.148 C 398.512 397.118 398.634 397.217 399.713 396.922 C 404.548 395.599 406.6 396.602 407.646 400.798 C 408.033 402.353 402.876 408.411 401.164 408.411 C 399.785 408.411 398.829 409.86 399.929 410.283 C 401.817 411.007 409.88 405.952 411.648 402.94 C 412.714 401.122 414.606 402.816 415.594 406.472 C 415.954 407.81 416.568 409.169 416.957 409.491 C 419.341 411.473 418.844 411.583 400.953 413.027 C 387.232 414.136 376.074 415.153 367.015 416.118 C 364.187 416.42 358.633 417.004 354.673 417.418 C 343.29 418.606 327.896 420.41 321.766 421.272 C 319.786 421.549 316.72 421.927 314.952 422.109 C 313.183 422.293 311.737 422.64 311.737 422.883 C 311.737 423.126 440.747 423.321 600.206 423.321 C 792.174 423.321 888.675 423.15 888.675 422.808 C 888.675 422.525 887.991 422.293 887.156 422.293 C 886.322 422.293 884.529 422.082 883.172 421.823 C 880.612 421.335 879.872 421.236 859.879 418.71 C 844.368 416.75 840.721 416.323 831.34 415.367 C 827.098 414.935 821.545 414.35 818.999 414.069 C 813.685 413.479 800.644 412.244 792.003 411.509 C 788.75 411.234 783.313 410.766 779.92 410.471 C 761.323 408.859 720.885 406.526 690.448 405.313 C 683.377 405.032 661.286 404.557 641.352 404.258 C 614.477 403.858 605.009 403.558 604.714 403.106 C 604.496 402.771 604.374 400.182 604.446 397.354 L 604.577 392.213 L 608.433 391.831 C 611.114 391.563 612.482 391.185 612.925 390.587 C 613.51 389.791 613.629 389.788 614.48 390.558 C 614.986 391.017 616.437 391.539 617.701 391.721 C 620.882 392.173 623.166 392.877 626.146 394.321 C 629.352 395.876 632.6 396.002 632.6 394.569 C 632.6 392.279 633.086 391.955 636.528 391.955 C 638.389 391.955 640.668 391.602 641.743 391.143 L 643.655 390.33 L 641.343 388.317 C 638.733 386.045 640.022 385.325 643.491 387.118 C 645.25 388.027 645.842 387.948 650.469 386.187 C 653.027 385.213 653.554 384.832 653.047 384.326 C 652.539 383.82 652.751 383.422 654.076 382.385 C 654.991 381.669 655.74 380.778 655.74 380.405 C 655.74 380.034 656.55 379.577 657.54 379.39 C 658.53 379.206 659.34 378.819 659.34 378.533 C 659.34 378.248 660.613 377.431 662.17 376.718 C 667.877 374.106 666.478 372.52 659.927 374.178 C 654.552 375.541 649.608 374.851 652.121 373.091 C 652.733 372.664 653.002 372.066 652.811 371.566 C 652.625 371.08 652.843 370.552 653.347 370.27 C 653.815 370.007 654.197 369.33 654.197 368.765 C 654.197 368.201 654.834 367.152 655.612 366.437 L 657.025 365.137 L 655.425 365.407 C 649.282 366.442 648.589 366.428 648.89 365.278 C 649.228 363.983 648.555 363.888 646.508 364.948 C 644.848 365.805 644.256 365.211 644.78 363.209 C 645.007 362.34 644.827 362.131 643.844 362.129 C 642.652 362.127 642.659 362.1 644.17 360.862 L 645.714 359.598 L 644.299 359.58 C 643.349 359.567 642.884 359.288 642.884 358.734 C 642.884 358.107 643.199 357.985 644.184 358.233 C 645.383 358.534 645.455 358.453 645.136 357.178 C 644.794 355.812 644.803 355.805 646.008 356.649 C 647.689 357.828 648.728 357.785 648.076 356.566 C 647.642 355.756 647.914 355.506 650.064 354.732 C 652.564 353.835 654.631 352.172 653.844 351.695 C 653.387 351.416 648.798 352.073 647.437 352.611 C 646.969 352.795 646.436 352.699 646.249 352.397 C 646.049 352.075 646.348 351.848 646.969 351.848 C 647.554 351.848 648.026 351.513 648.026 351.095 C 648.026 350.681 648.481 350.098 649.034 349.801 C 649.588 349.506 650.42 348.397 650.879 347.342 C 651.34 346.285 652.058 344.784 652.472 344.006 C 652.906 343.194 653.002 342.591 652.701 342.591 C 650.987 342.591 651.072 340.431 652.876 338.231 C 653.884 336.998 654.712 335.858 654.712 335.691 C 654.712 334.778 650.289 335.631 646.663 337.243 C 645.772 337.639 644.688 337.963 644.251 337.963 C 643.815 337.963 643.316 338.195 643.142 338.479 C 642.526 339.473 641.343 339.005 641.343 337.768 C 641.343 336.668 641.829 336.281 643.914 335.718 C 644.807 335.48 646.699 332.933 646.566 332.153 C 646.479 331.635 647.003 330.659 647.732 329.984 C 651.187 326.78 648.132 325.269 643.03 327.658 C 639.041 329.523 638.06 329.592 637.001 328.081 C 635.975 326.616 635.991 326.137 637.059 326.137 C 637.532 326.137 638.31 325.784 638.787 325.352 C 639.475 324.729 639.957 324.679 641.102 325.116 C 643.194 325.912 644.769 324.396 643.059 323.23 C 641.957 322.479 641.964 322.461 644.215 320.385 C 646.937 317.876 647.36 315.579 645.198 315.035 C 644.276 314.803 643.914 314.367 643.914 313.483 C 643.914 311.877 640.726 311.753 638.771 313.283 C 637.251 314.47 635.896 314.592 635.325 313.589 C 635.1 313.193 634.335 312.788 633.629 312.689 C 632.756 312.567 632.29 312.14 632.18 311.355 C 631.991 310.034 632.047 310.012 633.887 310.711 C 635.143 311.188 635.215 311.141 634.891 310.07 C 634.306 308.144 634.36 307.915 635.428 307.744 C 638.303 307.285 639.327 305.209 637.071 304.41 C 636.265 304.127 637.356 302.471 638.544 302.174 C 639.554 301.92 639.655 301.724 639.169 300.946 C 638.715 300.219 638.776 299.834 639.453 299.159 C 640.56 298.053 640.575 296.314 639.478 296.314 C 638.821 296.314 638.708 295.978 638.956 294.746 C 639.302 293.013 639.163 293.034 636.328 295.13 L 634.657 296.365 L 632.938 295.054 C 631.991 294.334 630.616 293.742 629.883 293.742 C 629.147 293.742 628.412 293.522 628.245 293.254 C 627.789 292.516 629.703 291.697 631.055 292.05 C 632.153 292.338 632.223 292.237 631.932 290.784 C 631.604 289.146 632.085 288.442 634.285 287.335 C 635.581 286.683 636.051 285.515 635.021 285.515 C 634.607 285.515 633.993 285.182 633.653 284.773 C 633.316 284.366 632.304 283.961 631.406 283.871 L 629.773 283.711 L 632.344 282.467 C 634.486 281.43 634.722 281.189 633.757 281.021 C 632.531 280.805 632.16 279.911 633.244 279.781 C 633.597 279.74 632.846 279.565 631.572 279.396 C 628.927 279.043 628.592 277.457 630.578 274.668 C 631.946 272.749 631.84 272.483 629.833 272.807 C 628.877 272.962 627.881 272.877 627.618 272.614 C 627.327 272.323 626.569 272.74 625.663 273.684 C 623.532 275.909 620.86 275.644 622.574 273.378 C 623.424 272.256 623.577 270.292 622.848 269.842 C 622.574 269.673 622.477 268.895 622.635 268.112 C 622.824 267.163 622.648 266.463 622.104 266.013 C 621.042 265.131 621.071 264.859 622.387 263.446 C 623.136 262.643 623.301 262.153 622.905 261.908 C 622.527 261.674 622.947 260.929 624.104 259.777 C 626.203 257.69 626.257 257.453 624.835 256.693 C 623.906 256.193 623.564 256.333 622.392 257.685 C 620.644 259.705 617.91 260.506 618.437 258.846 C 618.727 257.932 618.579 257.748 617.553 257.748 C 615.964 257.748 615.461 257.231 616.345 256.513 C 617.539 255.546 618.304 252.605 617.361 252.605 C 616.93 252.605 616.664 252.432 616.772 252.221 C 618.088 249.667 618.707 247.73 618.462 246.952 C 618.174 246.045 619.874 243.865 620.871 243.865 C 621.1 243.865 621.287 243.492 621.287 243.038 C 621.287 241.983 618.945 242.473 617.431 243.845 C 614.475 246.525 610.282 247.701 610.781 245.71 C 610.999 244.84 610.772 244.147 610.021 243.395 C 608.671 242.046 608.649 240.943 609.962 240.527 C 610.52 240.349 611.458 239.591 612.048 238.842 L 613.119 237.481 L 611.933 236.984 C 611.281 236.709 609.243 236.469 607.405 236.448 C 604.462 236.412 604.062 236.291 604.059 235.418 C 604.059 234.808 603.483 234.192 602.563 233.816 L 601.07 233.204 L 604.525 232.055 C 607.578 231.038 607.96 230.768 607.823 229.711 C 607.733 229.038 608.136 227.994 608.743 227.322 C 610.284 225.612 610.581 224.469 609.582 224.087 C 609.018 223.871 608.19 224.366 607.069 225.587 C 604.718 228.156 603.184 228.053 602.084 225.25 C 601.52 223.812 601.407 222.919 601.749 222.577 C 602.507 221.819 602.372 220.726 601.522 220.726 C 600.145 220.726 600.224 219.846 601.868 216.809 L 603.506 213.783 L 602.131 214.683 C 600.017 216.067 599.558 215.842 599.781 213.527 C 599.889 212.395 599.853 211.471 599.702 211.471 C 599.551 211.471 599.511 209.619 599.614 207.356 C 599.74 204.582 599.616 203.244 599.232 203.244 C 598.842 203.244 598.662 205.68 598.662 211.016 L 598.662 211.016 L 598.662 211.016 L 598.662 211.016 L 598.662 211.016 Z  M 427.931 408.777 C 427.951 410.1 426.342 411.133 424.707 410.847 C 423.647 410.663 423.668 410.611 425.029 410.044 C 426.066 409.608 426.453 409.108 426.385 408.28 C 426.333 407.644 426.318 406.791 426.349 406.384 C 426.439 405.201 427.913 407.43 427.931 408.777 Z " fill-rule="evenodd" fill="rgb(6,7,6)"/></g><g clip-path="url(#_clipPath_wRwOyah4o4SAcjJAVjgtp9chZO53NWvs)"><text transform="matrix(1.53,0,0,1.53,630,494.498)" style="font-family:'Arvo';font-weight:700;font-size:20px;font-style:normal;fill:#000000;stroke:none;">8225 N. Woodbridge Rd.</text><text transform="matrix(1.53,0,0,1.53,630,531.466)" style="font-family:'Arvo';font-weight:700;font-size:20px;font-style:normal;fill:#000000;stroke:none;">Wheeler, MI 48662</text></g><defs><clipPath id="_clipPath_wRwOyah4o4SAcjJAVjgtp9chZO53NWvs"><rect x="0" y="0" width="247" height="48.32" transform="matrix(1.53,0,0,1.53,630,465.091)"/></clipPath></defs><g clip-path="url(#_clipPath_GDKJRbod1QyDkdVnuO7AftNtwwJqezAC)"><text transform="matrix(2.043,0,0,2.043,258.467,503.095)" style="font-family:'Arvo';font-weight:700;font-size:20px;font-style:normal;fill:#000000;stroke:none;">(989) 948-4714</text></g><defs><clipPath id="_clipPath_GDKJRbod1QyDkdVnuO7AftNtwwJqezAC"><rect x="0" y="0" width="141" height="24.16" transform="matrix(2.043,0,0,2.043,256.46,463.839)"/></clipPath></defs></svg>