<?xml version="1.0" encoding="UTF-8" standalone="no"?><!-- Generator: Gravit.io --><svg xmlns="http://www.w3.org/2000/svg" xmlns:xlink="http://www.w3.org/1999/xlink" style="isolation:isolate" viewBox="0 0 100 100" width="100pt" height="100pt"><path d=" M 51.436 99.771 C 51.365 99.661 51.325 91.898 51.348 90.97 L 51.391 89.284 L 52.656 89.159 C 53.536 89.071 53.984 88.947 54.13 88.751 C 54.322 88.489 54.361 88.489 54.64 88.741 C 54.806 88.892 55.282 89.063 55.696 89.123 C 56.74 89.271 57.489 89.502 58.467 89.976 C 59.518 90.486 60.584 90.527 60.584 90.057 C 60.584 89.306 60.743 89.199 61.872 89.199 C 62.483 89.199 63.23 89.083 63.583 88.933 L 64.21 88.667 L 63.452 88.006 C 62.596 87.261 63.019 87.025 64.156 87.613 C 64.734 87.911 64.928 87.885 66.446 87.307 C 67.285 86.988 67.457 86.863 67.291 86.697 C 67.125 86.531 67.194 86.4 67.629 86.06 C 67.929 85.825 68.175 85.533 68.175 85.411 C 68.175 85.289 68.44 85.139 68.765 85.078 C 69.09 85.017 69.355 84.89 69.355 84.797 C 69.355 84.703 69.773 84.435 70.284 84.201 C 72.156 83.344 71.697 82.824 69.548 83.368 C 67.785 83.815 66.163 83.589 66.987 83.011 C 67.188 82.871 67.277 82.675 67.214 82.511 C 67.153 82.352 67.224 82.178 67.39 82.086 C 67.543 82 67.668 81.778 67.668 81.592 C 67.668 81.407 67.877 81.063 68.133 80.829 L 68.596 80.402 L 68.071 80.491 C 66.056 80.83 65.829 80.826 65.928 80.448 C 66.038 80.023 65.818 79.992 65.146 80.34 C 64.601 80.621 64.407 80.426 64.579 79.77 C 64.654 79.485 64.595 79.416 64.272 79.415 C 63.881 79.415 63.883 79.406 64.379 79 L 64.886 78.585 L 64.421 78.579 C 64.11 78.575 63.957 78.483 63.957 78.302 C 63.957 78.096 64.061 78.056 64.384 78.137 C 64.777 78.236 64.801 78.209 64.696 77.791 C 64.584 77.343 64.587 77.341 64.982 77.618 C 65.534 78.004 65.874 77.99 65.66 77.59 C 65.518 77.325 65.607 77.243 66.313 76.989 C 67.133 76.694 67.811 76.149 67.553 75.993 C 67.403 75.901 65.897 76.117 65.451 76.293 C 65.297 76.353 65.122 76.322 65.061 76.223 C 64.996 76.117 65.094 76.043 65.297 76.043 C 65.489 76.043 65.644 75.933 65.644 75.796 C 65.644 75.66 65.793 75.469 65.975 75.371 C 66.156 75.275 66.429 74.911 66.58 74.565 C 66.731 74.218 66.967 73.726 67.102 73.47 C 67.245 73.204 67.277 73.006 67.178 73.006 C 66.615 73.006 66.643 72.298 67.235 71.576 C 67.566 71.171 67.837 70.797 67.837 70.743 C 67.837 70.443 66.387 70.723 65.197 71.252 C 64.905 71.382 64.549 71.488 64.406 71.488 C 64.263 71.488 64.099 71.564 64.042 71.657 C 63.84 71.983 63.452 71.83 63.452 71.424 C 63.452 71.063 63.611 70.936 64.295 70.752 C 64.588 70.673 65.209 69.838 65.165 69.582 C 65.137 69.412 65.308 69.092 65.548 68.87 C 66.681 67.82 65.679 67.324 64.005 68.107 C 62.697 68.719 62.375 68.742 62.027 68.246 C 61.691 67.766 61.696 67.609 62.047 67.609 C 62.202 67.609 62.457 67.493 62.613 67.351 C 62.839 67.147 62.997 67.13 63.373 67.274 C 64.059 67.535 64.576 67.037 64.015 66.655 C 63.653 66.409 63.655 66.403 64.394 65.722 C 65.287 64.899 65.426 64.145 64.717 63.967 C 64.414 63.891 64.295 63.747 64.295 63.457 C 64.295 62.931 63.25 62.89 62.608 63.392 C 62.109 63.781 61.665 63.821 61.478 63.492 C 61.404 63.362 61.153 63.229 60.921 63.197 C 60.635 63.157 60.482 63.017 60.446 62.759 C 60.384 62.326 60.402 62.319 61.006 62.548 C 61.418 62.705 61.442 62.689 61.335 62.338 C 61.143 61.706 61.161 61.631 61.512 61.575 C 62.455 61.424 62.791 60.743 62.05 60.481 C 61.786 60.388 62.144 59.845 62.534 59.748 C 62.865 59.664 62.898 59.6 62.739 59.345 C 62.59 59.106 62.61 58.98 62.832 58.759 C 63.195 58.396 63.2 57.825 62.84 57.825 C 62.624 57.825 62.588 57.715 62.669 57.311 C 62.782 56.743 62.737 56.749 61.807 57.437 L 61.258 57.842 L 60.695 57.412 C 60.384 57.176 59.933 56.982 59.693 56.982 C 59.451 56.982 59.21 56.909 59.155 56.822 C 59.005 56.58 59.633 56.311 60.077 56.427 C 60.437 56.521 60.46 56.488 60.365 56.011 C 60.257 55.474 60.415 55.243 61.137 54.88 C 61.562 54.666 61.716 54.283 61.378 54.283 C 61.242 54.283 61.041 54.174 60.929 54.039 C 60.819 53.906 60.487 53.773 60.192 53.744 L 59.656 53.691 L 60.5 53.283 C 61.202 52.943 61.28 52.864 60.963 52.809 C 60.561 52.738 60.439 52.445 60.795 52.402 C 60.911 52.389 60.664 52.331 60.247 52.276 C 59.379 52.16 59.269 51.64 59.921 50.725 C 60.369 50.095 60.335 50.008 59.676 50.114 C 59.363 50.165 59.036 50.137 58.949 50.051 C 58.854 49.956 58.605 50.092 58.308 50.402 C 57.609 51.132 56.733 51.045 57.295 50.302 C 57.574 49.933 57.624 49.289 57.385 49.142 C 57.295 49.086 57.263 48.831 57.315 48.574 C 57.377 48.263 57.319 48.033 57.141 47.886 C 56.792 47.596 56.802 47.507 57.234 47.044 C 57.479 46.78 57.533 46.619 57.403 46.539 C 57.279 46.462 57.417 46.218 57.797 45.84 C 58.485 45.155 58.503 45.078 58.037 44.828 C 57.732 44.664 57.62 44.71 57.235 45.154 C 56.662 45.816 55.765 46.079 55.938 45.534 C 56.033 45.235 55.984 45.174 55.648 45.174 C 55.127 45.174 54.961 45.005 55.251 44.769 C 55.643 44.452 55.894 43.487 55.585 43.487 C 55.443 43.487 55.356 43.43 55.392 43.361 C 55.823 42.523 56.026 41.888 55.946 41.633 C 55.851 41.335 56.409 40.62 56.736 40.62 C 56.811 40.62 56.873 40.498 56.873 40.349 C 56.873 40.003 56.105 40.163 55.608 40.614 C 54.638 41.493 53.263 41.878 53.426 41.225 C 53.498 40.94 53.423 40.713 53.177 40.466 C 52.734 40.023 52.727 39.662 53.158 39.525 C 53.341 39.467 53.649 39.218 53.842 38.972 L 54.193 38.526 L 53.804 38.363 C 53.59 38.273 52.922 38.194 52.319 38.187 C 51.353 38.175 51.222 38.136 51.221 37.849 C 51.221 37.649 51.032 37.447 50.731 37.324 L 50.241 37.123 L 51.374 36.746 C 52.376 36.412 52.501 36.324 52.456 35.977 C 52.426 35.756 52.559 35.414 52.758 35.193 C 53.263 34.632 53.361 34.257 53.033 34.132 C 52.848 34.061 52.576 34.224 52.209 34.624 C 51.438 35.467 50.934 35.433 50.573 34.514 C 50.388 34.042 50.351 33.749 50.463 33.637 C 50.712 33.388 50.668 33.03 50.389 33.03 C 49.937 33.03 49.963 32.741 50.503 31.745 L 51.04 30.752 L 50.589 31.047 C 49.895 31.501 49.745 31.427 49.818 30.668 C 49.853 30.297 49.841 29.993 49.792 29.993 C 49.742 29.993 49.729 29.386 49.763 28.644 C 49.804 27.734 49.764 27.295 49.638 27.295 C 49.51 27.295 49.451 28.094 49.451 29.844 L 49.451 29.844 L 49.451 29.844 L 49.451 29.844 L 49.451 29.844 L 49.451 32.394 L 49.03 32.314 C 48.798 32.269 48.607 32.298 48.607 32.378 C 48.607 32.458 48.669 32.523 48.744 32.523 C 49.363 32.523 49.457 32.962 48.976 33.607 C 48.476 34.277 48.463 34.491 48.846 35.686 C 48.936 35.965 48.901 36.066 48.715 36.066 C 48.576 36.066 48.413 35.914 48.355 35.728 C 48.296 35.543 48.143 35.391 48.016 35.391 C 47.888 35.391 47.672 35.232 47.536 35.038 L 47.288 34.683 L 47.101 35.032 C 46.944 35.325 47.009 35.513 47.508 36.207 C 48.126 37.067 48.264 37.584 47.875 37.584 C 47.621 37.584 47.191 37.137 47.044 36.719 C 46.929 36.392 45.912 36.198 45.803 36.483 C 45.762 36.59 45.845 36.901 45.986 37.173 C 46.57 38.292 46.222 39.011 45.386 38.415 L 44.866 38.045 L 45.09 38.405 C 45.214 38.603 45.375 38.764 45.447 38.764 C 45.521 38.764 45.652 38.955 45.74 39.186 C 45.828 39.418 45.969 39.608 46.054 39.608 C 46.405 39.608 46.619 41 46.359 41.59 C 46.153 42.059 45.909 42.084 45.909 41.637 C 45.909 41.404 45.745 41.262 45.36 41.16 C 44.915 41.042 44.814 40.932 44.819 40.572 C 44.825 40.157 44.782 40.132 44.173 40.191 C 43.34 40.27 43.224 40.396 43.684 40.718 C 44.173 41.06 44.189 41.801 43.706 41.801 C 43.515 41.801 43.396 41.862 43.442 41.935 C 43.487 42.009 43.462 42.172 43.385 42.297 C 43.143 42.689 43.521 43.402 44.1 43.642 C 44.512 43.813 44.572 43.886 44.349 43.943 C 43.987 44.036 43.963 44.307 44.307 44.439 C 44.445 44.492 44.56 44.674 44.56 44.843 C 44.56 45.011 44.673 45.174 44.811 45.205 C 45.035 45.252 45.035 45.313 44.811 45.742 C 44.465 46.407 44.484 46.477 45.108 46.794 C 45.829 47.161 45.822 47.151 45.575 47.447 C 45.309 47.767 44.61 47.77 44.053 47.452 C 43.479 47.123 43.335 47.14 43.535 47.514 C 43.997 48.376 44.032 49.198 43.618 49.469 C 43.07 49.828 42.89 49.796 42.704 49.307 C 42.616 49.075 42.485 48.88 42.413 48.872 C 41.963 48.828 41.625 48.711 41.268 48.477 C 40.733 48.128 40.511 48.14 40.511 48.522 C 40.511 48.86 41.009 49.391 41.326 49.391 C 41.434 49.391 41.523 49.467 41.523 49.56 C 41.523 49.653 41.409 49.729 41.271 49.729 C 40.856 49.729 40.984 50.052 41.444 50.167 C 41.755 50.245 41.845 50.355 41.776 50.572 C 41.708 50.786 41.847 50.968 42.268 51.216 C 42.804 51.533 42.847 51.614 42.758 52.16 C 42.672 52.69 42.71 52.776 43.104 52.925 C 43.348 53.018 43.547 53.207 43.547 53.346 C 43.547 53.511 43.644 53.561 43.828 53.49 C 44.05 53.405 44.088 53.459 44.012 53.749 C 43.938 54.029 43.991 54.114 44.238 54.114 C 44.415 54.114 44.56 54.182 44.56 54.265 C 44.56 54.76 41.757 54.519 40.999 53.959 C 40.432 53.539 40.146 53.507 40.289 53.881 C 40.38 54.118 40.283 54.138 39.525 54.034 C 38.994 53.961 38.656 53.978 38.656 54.077 C 38.656 54.167 38.435 54.285 38.164 54.339 C 37.598 54.452 37.607 55.104 38.176 55.253 C 38.387 55.308 38.487 55.49 38.487 55.819 C 38.487 56.13 38.613 56.38 38.838 56.517 C 40.068 57.259 39.843 58.988 38.595 58.393 C 38.034 58.126 37.976 58.127 37.528 58.421 L 37.053 58.732 L 37.586 58.87 C 37.998 58.977 38.099 59.08 38.033 59.33 C 37.958 59.619 38.021 59.644 38.643 59.56 C 39.404 59.458 39.523 59.934 38.768 60.058 C 38.457 60.11 38.495 60.159 39.022 60.392 C 39.363 60.542 39.776 60.88 39.941 61.142 C 40.105 61.405 40.262 61.65 40.288 61.687 C 40.313 61.723 40.452 61.655 40.597 61.536 C 40.954 61.239 41.74 61.584 41.66 62.002 C 41.579 62.433 40.592 62.469 39.677 62.076 C 38.983 61.778 36.89 61.199 36.506 61.199 C 36.281 61.199 36.368 61.926 36.603 62.004 C 36.711 62.041 36.8 62.244 36.8 62.458 C 36.8 62.912 37.049 63.152 37.687 63.312 C 37.942 63.376 38.15 63.534 38.15 63.663 C 38.15 63.945 38.215 63.946 37.39 63.649 C 36.659 63.386 35.114 63.305 35.114 63.531 C 35.114 63.607 35.303 63.849 35.535 64.066 C 35.767 64.284 35.957 64.597 35.957 64.761 C 35.957 64.925 36.041 65.111 36.145 65.175 C 36.258 65.245 36.301 65.578 36.252 66.012 L 36.17 66.734 L 36.943 66.95 L 37.717 67.167 L 37.216 67.38 L 36.716 67.594 L 37.444 67.601 C 38.291 67.61 38.824 67.848 38.824 68.22 C 38.824 68.532 37.199 68.473 35.99 68.115 C 35.413 67.944 35.171 67.943 34.81 68.107 L 34.356 68.314 L 34.724 68.613 C 34.99 68.828 35.041 68.963 34.91 69.094 C 34.778 69.226 34.895 69.377 35.328 69.633 C 35.667 69.833 36.006 70.205 36.103 70.485 C 36.223 70.827 36.39 70.983 36.638 70.983 C 36.852 70.983 37.035 71.113 37.084 71.301 C 37.15 71.556 37.387 71.645 38.249 71.737 C 40.61 71.989 38.843 73.006 36.043 73.006 C 34.899 73.006 34.27 73.07 34.27 73.186 C 34.27 73.287 34.413 73.321 34.593 73.264 C 35.013 73.131 35.245 73.505 34.899 73.758 C 34.608 73.971 35.002 74.356 35.509 74.356 C 35.637 74.356 36.005 74.535 36.328 74.754 C 36.65 74.973 37.427 75.254 38.055 75.379 C 40.486 75.862 38.289 76.015 34.99 75.592 C 33.762 75.435 32.705 75.359 32.64 75.424 C 32.498 75.566 33.484 76.629 34.186 77.091 L 34.692 77.424 L 33.536 77.328 L 32.38 77.233 L 32.627 77.607 C 32.763 77.814 33.039 78.007 33.24 78.037 C 33.52 78.079 33.593 78.192 33.557 78.524 C 33.518 78.892 33.614 78.994 34.213 79.215 C 34.885 79.464 34.91 79.499 34.819 80.06 L 34.724 80.644 L 35.298 80.544 C 37.649 80.138 37.921 80.217 36.885 81.007 C 36.323 81.435 36.248 81.448 35.336 81.28 C 34.808 81.183 34.135 81.103 33.84 81.103 C 33.544 81.103 32.785 80.838 32.154 80.515 C 30.729 79.784 30.667 79.84 31.576 81.044 C 31.975 81.573 32.302 82.107 32.302 82.229 C 32.302 82.352 32.427 82.452 32.58 82.452 C 32.732 82.452 33.068 82.672 33.325 82.94 C 33.582 83.208 34.013 83.472 34.284 83.527 C 35.274 83.724 34.932 84.308 33.891 84.199 C 32.725 84.076 31.74 83.823 31.74 83.648 C 31.74 83.571 31.446 83.515 31.087 83.525 C 30.622 83.537 30.178 83.383 29.547 82.991 C 29.059 82.687 28.625 82.474 28.583 82.518 C 28.428 82.672 28.744 83.33 29.248 83.904 C 29.71 84.43 29.743 84.537 29.562 84.932 C 29.365 85.366 29.51 85.647 29.938 85.655 C 30.014 85.656 30.028 85.809 29.969 85.994 C 29.887 86.253 29.938 86.332 30.192 86.332 C 30.374 86.332 30.566 86.444 30.619 86.582 C 30.736 86.887 32.725 87.85 33.236 87.85 C 33.546 87.85 33.585 87.917 33.492 88.29 C 33.388 88.699 33.407 88.716 33.748 88.534 C 33.949 88.426 34.257 88.382 34.431 88.438 C 34.645 88.506 34.835 88.413 35.018 88.153 L 35.288 87.767 L 35.821 88.338 C 36.337 88.889 36.364 88.897 36.622 88.59 C 37.246 87.847 37.442 87.783 37.862 88.187 C 38.683 88.977 39.699 89.1 40.516 88.507 C 40.714 88.364 40.954 88.404 41.531 88.675 L 42.287 89.031 L 43.213 88.672 C 44.617 88.129 45.194 88.078 45.262 88.494 C 45.315 88.816 45.355 88.821 45.994 88.598 C 46.833 88.303 48.053 88.289 48.678 88.567 L 49.151 88.778 L 49.05 90.87 C 48.995 92.021 48.904 99.921 48.849 99.976 C 48.77 100.056 51.533 99.92 51.436 99.771 Z " fill="rgb(51,51,51)"/></svg>