<?xml version="1.0" encoding="UTF-8" standalone="no"?><!-- Generator: Gravit.io --><svg xmlns="http://www.w3.org/2000/svg" xmlns:xlink="http://www.w3.org/1999/xlink" style="isolation:isolate" viewBox="0 0 100 100" width="100pt" height="100pt"><path d=" M 50.988 99.843 C 50.938 99.767 50.911 94.428 50.927 93.79 L 50.957 92.631 L 51.827 92.544 C 52.431 92.484 52.74 92.399 52.84 92.264 C 52.972 92.084 52.999 92.084 53.191 92.257 C 53.305 92.361 53.632 92.478 53.917 92.52 C 54.635 92.622 55.15 92.78 55.823 93.106 C 56.546 93.457 57.279 93.485 57.279 93.162 C 57.279 92.645 57.388 92.572 58.165 92.572 C 58.585 92.572 59.099 92.493 59.341 92.389 L 59.773 92.206 L 59.251 91.752 C 58.662 91.239 58.953 91.077 59.736 91.481 C 60.132 91.686 60.266 91.668 61.31 91.271 C 61.887 91.051 62.006 90.966 61.891 90.851 C 61.777 90.737 61.824 90.647 62.123 90.413 C 62.33 90.252 62.499 90.051 62.499 89.967 C 62.499 89.883 62.682 89.78 62.905 89.738 C 63.128 89.696 63.311 89.609 63.311 89.544 C 63.311 89.48 63.598 89.296 63.949 89.135 C 65.237 88.546 64.921 88.188 63.443 88.562 C 62.231 88.87 61.115 88.714 61.682 88.317 C 61.82 88.22 61.881 88.085 61.838 87.973 C 61.796 87.863 61.845 87.744 61.959 87.68 C 62.064 87.621 62.151 87.468 62.151 87.341 C 62.151 87.214 62.294 86.977 62.47 86.816 L 62.789 86.522 L 62.428 86.583 C 61.042 86.817 60.886 86.814 60.954 86.554 C 61.03 86.262 60.878 86.241 60.416 86.48 C 60.042 86.673 59.908 86.539 60.026 86.087 C 60.078 85.891 60.037 85.844 59.815 85.844 C 59.546 85.843 59.548 85.837 59.889 85.558 L 60.237 85.273 L 59.918 85.269 C 59.704 85.266 59.599 85.203 59.599 85.078 C 59.599 84.936 59.67 84.909 59.892 84.965 C 60.162 85.033 60.179 85.014 60.107 84.727 C 60.029 84.419 60.031 84.417 60.303 84.607 C 60.683 84.873 60.917 84.864 60.77 84.589 C 60.672 84.406 60.733 84.35 61.218 84.175 C 61.782 83.973 62.249 83.598 62.071 83.49 C 61.968 83.427 60.933 83.575 60.626 83.696 C 60.52 83.738 60.4 83.716 60.358 83.648 C 60.313 83.576 60.38 83.524 60.52 83.524 C 60.652 83.524 60.759 83.449 60.759 83.354 C 60.759 83.261 60.861 83.13 60.986 83.063 C 61.111 82.996 61.299 82.746 61.402 82.508 C 61.506 82.269 61.668 81.931 61.762 81.755 C 61.859 81.572 61.881 81.436 61.813 81.436 C 61.427 81.436 61.446 80.949 61.853 80.452 C 62.08 80.174 62.267 79.917 62.267 79.88 C 62.267 79.673 61.269 79.866 60.451 80.23 C 60.25 80.319 60.006 80.392 59.907 80.392 C 59.809 80.392 59.696 80.444 59.657 80.508 C 59.518 80.733 59.251 80.627 59.251 80.348 C 59.251 80.1 59.36 80.012 59.831 79.886 C 60.032 79.832 60.459 79.257 60.429 79.081 C 60.41 78.964 60.528 78.744 60.692 78.592 C 61.472 77.869 60.783 77.528 59.631 78.067 C 58.732 78.488 58.51 78.504 58.271 78.163 C 58.04 77.832 58.044 77.724 58.285 77.724 C 58.391 77.724 58.567 77.644 58.674 77.547 C 58.83 77.406 58.938 77.395 59.197 77.494 C 59.669 77.673 60.024 77.331 59.638 77.068 C 59.389 76.899 59.391 76.895 59.899 76.426 C 60.513 75.861 60.608 75.342 60.121 75.22 C 59.913 75.167 59.831 75.069 59.831 74.869 C 59.831 74.507 59.112 74.479 58.671 74.824 C 58.328 75.092 58.022 75.12 57.893 74.893 C 57.843 74.804 57.67 74.713 57.511 74.69 C 57.314 74.663 57.209 74.566 57.184 74.389 C 57.141 74.091 57.154 74.086 57.569 74.244 C 57.852 74.352 57.868 74.341 57.795 74.1 C 57.663 73.665 57.676 73.613 57.917 73.575 C 58.565 73.471 58.796 73.003 58.287 72.823 C 58.105 72.759 58.352 72.385 58.62 72.318 C 58.847 72.261 58.87 72.217 58.761 72.041 C 58.658 71.877 58.672 71.79 58.825 71.638 C 59.074 71.388 59.078 70.996 58.83 70.996 C 58.682 70.996 58.657 70.92 58.712 70.642 C 58.791 70.252 58.759 70.256 58.12 70.729 L 57.743 71.008 L 57.355 70.712 C 57.141 70.549 56.831 70.416 56.666 70.416 C 56.5 70.416 56.334 70.366 56.296 70.306 C 56.193 70.139 56.625 69.955 56.93 70.034 C 57.178 70.099 57.193 70.076 57.128 69.749 C 57.054 69.379 57.162 69.22 57.659 68.971 C 57.951 68.823 58.057 68.56 57.825 68.56 C 57.731 68.56 57.593 68.485 57.516 68.393 C 57.44 68.301 57.212 68.209 57.009 68.189 L 56.641 68.153 L 57.221 67.872 C 57.704 67.638 57.757 67.584 57.54 67.546 C 57.263 67.497 57.179 67.296 57.424 67.266 C 57.504 67.257 57.334 67.218 57.047 67.18 C 56.45 67.1 56.374 66.742 56.822 66.113 C 57.131 65.68 57.107 65.62 56.654 65.693 C 56.439 65.728 56.214 65.709 56.155 65.65 C 56.089 65.584 55.918 65.678 55.714 65.891 C 55.233 66.393 54.63 66.333 55.017 65.822 C 55.209 65.569 55.243 65.126 55.079 65.024 C 55.017 64.986 54.995 64.811 55.03 64.634 C 55.073 64.42 55.033 64.262 54.911 64.16 C 54.671 63.962 54.678 63.9 54.975 63.581 C 55.144 63.4 55.181 63.29 55.091 63.234 C 55.006 63.182 55.101 63.014 55.362 62.754 C 55.835 62.283 55.848 62.229 55.527 62.058 C 55.317 61.945 55.24 61.977 54.976 62.282 C 54.581 62.737 53.965 62.918 54.083 62.544 C 54.149 62.338 54.115 62.296 53.884 62.296 C 53.526 62.296 53.412 62.179 53.611 62.017 C 53.881 61.799 54.053 61.136 53.841 61.136 C 53.743 61.136 53.683 61.097 53.708 61.049 C 54.005 60.473 54.144 60.036 54.089 59.86 C 54.024 59.656 54.408 59.164 54.633 59.164 C 54.684 59.164 54.726 59.08 54.726 58.977 C 54.726 58.739 54.198 58.85 53.857 59.16 C 53.19 59.764 52.244 60.029 52.356 59.58 C 52.406 59.384 52.354 59.228 52.185 59.058 C 51.88 58.753 51.875 58.505 52.172 58.411 C 52.298 58.371 52.509 58.2 52.642 58.031 L 52.884 57.724 L 52.616 57.612 C 52.469 57.55 52.009 57.495 51.595 57.491 C 50.931 57.483 50.84 57.455 50.84 57.258 C 50.84 57.121 50.71 56.982 50.502 56.897 L 50.165 56.759 L 50.945 56.5 C 51.634 56.27 51.72 56.209 51.689 55.971 C 51.669 55.819 51.76 55.584 51.897 55.432 C 52.244 55.046 52.311 54.788 52.086 54.702 C 51.958 54.653 51.772 54.765 51.519 55.041 C 50.989 55.62 50.643 55.597 50.394 54.964 C 50.267 54.64 50.242 54.439 50.319 54.362 C 50.49 54.19 50.459 53.944 50.267 53.944 C 49.957 53.944 49.975 53.745 50.346 53.06 L 50.715 52.378 L 50.405 52.581 C 49.928 52.893 49.824 52.842 49.875 52.32 C 49.899 52.065 49.891 51.856 49.857 51.856 C 49.823 51.856 49.814 51.438 49.837 50.928 C 49.866 50.302 49.838 50 49.751 50 C 49.663 50 49.622 50.55 49.622 51.753 L 49.622 51.753 L 49.622 51.753 L 49.622 51.753 L 49.622 51.753 L 49.622 53.507 L 49.333 53.452 C 49.173 53.421 49.042 53.441 49.042 53.496 C 49.042 53.551 49.085 53.596 49.136 53.596 C 49.562 53.596 49.626 53.897 49.296 54.341 C 48.952 54.802 48.943 54.949 49.206 55.771 C 49.268 55.963 49.244 56.032 49.116 56.032 C 49.021 56.032 48.909 55.928 48.869 55.8 C 48.828 55.672 48.723 55.568 48.635 55.568 C 48.548 55.568 48.399 55.458 48.305 55.325 L 48.135 55.081 L 48.007 55.321 C 47.898 55.523 47.943 55.652 48.286 56.129 C 48.711 56.72 48.806 57.076 48.538 57.076 C 48.364 57.076 48.068 56.769 47.967 56.481 C 47.888 56.256 47.189 56.123 47.114 56.319 C 47.085 56.393 47.142 56.606 47.24 56.793 C 47.641 57.563 47.402 58.057 46.827 57.648 L 46.469 57.393 L 46.624 57.641 C 46.709 57.777 46.819 57.888 46.869 57.888 C 46.919 57.888 47.01 58.019 47.071 58.178 C 47.131 58.337 47.228 58.468 47.286 58.468 C 47.527 58.468 47.675 59.425 47.496 59.831 C 47.354 60.153 47.186 60.17 47.186 59.863 C 47.186 59.703 47.074 59.605 46.809 59.535 C 46.503 59.454 46.433 59.379 46.437 59.131 C 46.441 58.845 46.411 58.828 45.993 58.869 C 45.42 58.924 45.34 59.01 45.657 59.231 C 45.993 59.467 46.003 59.976 45.671 59.976 C 45.541 59.976 45.458 60.018 45.49 60.068 C 45.521 60.119 45.504 60.231 45.451 60.317 C 45.284 60.587 45.545 61.077 45.942 61.242 C 46.226 61.36 46.267 61.41 46.114 61.449 C 45.865 61.513 45.849 61.7 46.085 61.79 C 46.18 61.827 46.259 61.952 46.259 62.068 C 46.259 62.184 46.336 62.296 46.432 62.317 C 46.586 62.35 46.586 62.391 46.432 62.686 C 46.193 63.144 46.206 63.192 46.636 63.41 C 47.132 63.662 47.127 63.655 46.957 63.859 C 46.774 64.079 46.293 64.081 45.911 63.862 C 45.515 63.636 45.417 63.648 45.554 63.905 C 45.872 64.498 45.896 65.063 45.611 65.25 C 45.235 65.496 45.11 65.474 44.982 65.138 C 44.922 64.979 44.832 64.844 44.782 64.839 C 44.473 64.809 44.24 64.728 43.995 64.567 C 43.627 64.327 43.474 64.336 43.474 64.598 C 43.474 64.831 43.817 65.196 44.035 65.196 C 44.109 65.196 44.17 65.248 44.17 65.312 C 44.17 65.376 44.092 65.428 43.997 65.428 C 43.711 65.428 43.799 65.65 44.116 65.729 C 44.33 65.783 44.392 65.859 44.344 66.008 C 44.298 66.155 44.393 66.28 44.683 66.451 C 45.051 66.669 45.081 66.724 45.02 67.1 C 44.96 67.465 44.987 67.524 45.258 67.626 C 45.425 67.69 45.562 67.82 45.562 67.916 C 45.562 68.029 45.629 68.063 45.755 68.015 C 45.908 67.956 45.934 67.993 45.882 68.193 C 45.831 68.385 45.867 68.444 46.037 68.444 C 46.159 68.444 46.259 68.491 46.259 68.547 C 46.259 68.888 44.331 68.722 43.81 68.337 C 43.42 68.048 43.223 68.027 43.322 68.283 C 43.384 68.447 43.318 68.46 42.796 68.389 C 42.431 68.338 42.199 68.35 42.199 68.418 C 42.199 68.48 42.046 68.562 41.86 68.599 C 41.471 68.676 41.477 69.125 41.868 69.227 C 42.014 69.265 42.082 69.39 42.082 69.617 C 42.082 69.83 42.169 70.002 42.324 70.096 C 43.17 70.607 43.015 71.796 42.156 71.386 C 41.771 71.203 41.731 71.204 41.423 71.406 L 41.096 71.619 L 41.463 71.714 C 41.746 71.788 41.815 71.859 41.77 72.031 C 41.719 72.23 41.762 72.247 42.19 72.189 C 42.713 72.119 42.795 72.447 42.276 72.532 C 42.062 72.567 42.088 72.601 42.45 72.761 C 42.685 72.864 42.969 73.097 43.082 73.277 C 43.195 73.458 43.303 73.627 43.321 73.652 C 43.338 73.677 43.434 73.63 43.533 73.548 C 43.779 73.344 44.319 73.581 44.265 73.869 C 44.209 74.165 43.53 74.19 42.9 73.919 C 42.423 73.714 40.984 73.316 40.72 73.316 C 40.565 73.316 40.625 73.816 40.787 73.87 C 40.861 73.895 40.922 74.035 40.922 74.182 C 40.922 74.494 41.093 74.659 41.532 74.769 C 41.707 74.814 41.85 74.922 41.85 75.01 C 41.85 75.205 41.895 75.205 41.328 75.001 C 40.825 74.82 39.763 74.765 39.763 74.92 C 39.763 74.972 39.893 75.138 40.052 75.288 C 40.212 75.438 40.343 75.653 40.343 75.766 C 40.343 75.878 40.401 76.006 40.472 76.05 C 40.55 76.099 40.579 76.328 40.545 76.626 L 40.489 77.123 L 41.021 77.271 L 41.553 77.42 L 41.208 77.567 L 40.864 77.714 L 41.365 77.719 C 41.948 77.725 42.314 77.889 42.314 78.144 C 42.314 78.36 41.197 78.318 40.365 78.072 C 39.969 77.955 39.802 77.954 39.553 78.067 L 39.241 78.209 L 39.495 78.415 C 39.677 78.563 39.713 78.655 39.622 78.746 C 39.532 78.837 39.612 78.941 39.91 79.116 C 40.143 79.254 40.376 79.51 40.443 79.702 C 40.525 79.937 40.64 80.044 40.811 80.044 C 40.958 80.044 41.084 80.134 41.118 80.264 C 41.163 80.439 41.326 80.5 41.919 80.563 C 43.542 80.737 42.328 81.436 40.402 81.436 C 39.615 81.436 39.182 81.48 39.182 81.56 C 39.182 81.629 39.28 81.653 39.405 81.613 C 39.694 81.522 39.853 81.779 39.615 81.953 C 39.415 82.1 39.685 82.364 40.035 82.364 C 40.122 82.364 40.376 82.488 40.597 82.638 C 40.819 82.789 41.354 82.982 41.785 83.068 C 43.457 83.4 41.946 83.505 39.677 83.214 C 38.833 83.106 38.106 83.054 38.061 83.099 C 37.963 83.197 38.641 83.928 39.125 84.245 L 39.472 84.474 L 38.678 84.409 L 37.882 84.343 L 38.053 84.6 C 38.146 84.742 38.336 84.875 38.474 84.896 C 38.666 84.925 38.717 85.002 38.692 85.231 C 38.665 85.484 38.731 85.554 39.143 85.706 C 39.605 85.877 39.622 85.902 39.56 86.287 L 39.495 86.689 L 39.889 86.62 C 41.506 86.341 41.693 86.395 40.981 86.938 C 40.594 87.233 40.543 87.242 39.915 87.126 C 39.552 87.059 39.09 87.004 38.887 87.004 C 38.683 87.004 38.161 86.822 37.727 86.6 C 36.747 86.098 36.705 86.136 37.33 86.964 C 37.604 87.328 37.829 87.695 37.829 87.779 C 37.829 87.863 37.915 87.932 38.02 87.932 C 38.125 87.932 38.356 88.083 38.532 88.268 C 38.709 88.452 39.006 88.634 39.192 88.671 C 39.873 88.807 39.638 89.209 38.922 89.133 C 38.12 89.049 37.442 88.875 37.442 88.755 C 37.442 88.702 37.24 88.663 36.993 88.67 C 36.674 88.678 36.368 88.572 35.934 88.303 C 35.599 88.094 35.301 87.947 35.271 87.977 C 35.165 88.083 35.382 88.536 35.729 88.931 C 36.047 89.292 36.069 89.366 35.945 89.638 C 35.809 89.936 35.909 90.129 36.203 90.135 C 36.255 90.136 36.265 90.241 36.224 90.368 C 36.168 90.546 36.203 90.601 36.378 90.601 C 36.503 90.601 36.635 90.678 36.671 90.773 C 36.752 90.982 38.12 91.645 38.471 91.645 C 38.685 91.645 38.712 91.69 38.647 91.947 C 38.576 92.228 38.589 92.24 38.823 92.115 C 38.962 92.04 39.173 92.01 39.293 92.049 C 39.44 92.095 39.571 92.032 39.697 91.853 L 39.882 91.587 L 40.249 91.98 C 40.604 92.359 40.622 92.365 40.8 92.154 C 41.229 91.642 41.364 91.598 41.653 91.876 C 42.217 92.42 42.916 92.504 43.478 92.096 C 43.614 91.998 43.779 92.025 44.176 92.212 L 44.696 92.457 L 45.332 92.21 C 46.298 91.836 46.695 91.801 46.742 92.087 C 46.778 92.309 46.805 92.312 47.245 92.159 C 47.822 91.956 48.661 91.947 49.091 92.137 L 49.416 92.282 L 49.347 93.721 C 49.309 94.512 49.246 99.946 49.208 99.984 C 49.154 100.039 51.054 99.945 50.988 99.843 Z " fill="rgb(51,51,51)"/></svg>