<?xml version="1.0" encoding="UTF-8" standalone="no"?><!-- Generator: Gravit.io --><svg xmlns="http://www.w3.org/2000/svg" xmlns:xlink="http://www.w3.org/1999/xlink" style="isolation:isolate" viewBox="0 0 100 100" width="100pt" height="100pt"><path d=" M 51.921 99.694 C 51.825 99.547 51.772 89.164 51.803 87.923 L 51.861 85.668 L 53.552 85.5 C 54.729 85.383 55.329 85.217 55.523 84.954 C 55.78 84.605 55.832 84.604 56.205 84.941 C 56.427 85.143 57.064 85.372 57.619 85.452 C 59.014 85.65 60.016 85.959 61.324 86.593 C 62.731 87.275 64.156 87.33 64.156 86.701 C 64.156 85.697 64.369 85.554 65.879 85.554 C 66.695 85.554 67.695 85.399 68.167 85.198 L 69.006 84.842 L 67.991 83.958 C 66.846 82.962 67.412 82.646 68.934 83.432 C 69.706 83.831 69.965 83.797 71.996 83.024 C 73.118 82.596 73.349 82.43 73.127 82.207 C 72.904 81.985 72.996 81.811 73.578 81.356 C 73.98 81.042 74.308 80.651 74.308 80.487 C 74.308 80.324 74.664 80.124 75.098 80.042 C 75.532 79.961 75.887 79.791 75.887 79.666 C 75.887 79.541 76.446 79.182 77.129 78.869 C 79.633 77.723 79.019 77.028 76.145 77.755 C 73.787 78.353 71.618 78.05 72.72 77.278 C 72.989 77.091 73.107 76.828 73.023 76.609 C 72.941 76.396 73.037 76.164 73.258 76.041 C 73.463 75.925 73.631 75.628 73.631 75.38 C 73.631 75.133 73.91 74.673 74.252 74.359 L 74.872 73.788 L 74.17 73.907 C 71.474 74.361 71.17 74.355 71.303 73.85 C 71.451 73.282 71.156 73.24 70.257 73.705 C 69.529 74.081 69.269 73.821 69.499 72.942 C 69.599 72.561 69.52 72.47 69.089 72.469 C 68.566 72.468 68.569 72.456 69.232 71.913 L 69.909 71.358 L 69.288 71.35 C 68.872 71.344 68.667 71.222 68.667 70.979 C 68.667 70.704 68.806 70.651 69.238 70.759 C 69.764 70.891 69.796 70.856 69.655 70.296 C 69.505 69.697 69.509 69.694 70.038 70.064 C 70.776 70.581 71.232 70.563 70.945 70.028 C 70.755 69.672 70.874 69.563 71.818 69.223 C 72.915 68.829 73.822 68.1 73.476 67.891 C 73.276 67.768 71.262 68.057 70.665 68.293 C 70.46 68.373 70.226 68.331 70.144 68.199 C 70.056 68.058 70.187 67.958 70.46 67.958 C 70.716 67.958 70.924 67.811 70.924 67.627 C 70.924 67.446 71.123 67.19 71.366 67.06 C 71.609 66.93 71.974 66.444 72.175 65.981 C 72.378 65.517 72.692 64.859 72.874 64.517 C 73.065 64.161 73.107 63.896 72.975 63.896 C 72.223 63.896 72.26 62.949 73.052 61.984 C 73.494 61.443 73.857 60.942 73.857 60.869 C 73.857 60.468 71.917 60.843 70.326 61.55 C 69.935 61.724 69.459 61.866 69.268 61.866 C 69.076 61.866 68.857 61.968 68.781 62.092 C 68.51 62.528 67.991 62.323 67.991 61.78 C 67.991 61.298 68.204 61.128 69.119 60.881 C 69.511 60.776 70.341 59.659 70.283 59.317 C 70.245 59.09 70.475 58.661 70.794 58.365 C 72.31 56.96 70.97 56.296 68.732 57.345 C 66.982 58.163 66.551 58.193 66.086 57.53 C 65.636 56.888 65.643 56.677 66.112 56.677 C 66.319 56.677 66.661 56.522 66.87 56.333 C 67.172 56.059 67.383 56.038 67.886 56.229 C 68.804 56.579 69.495 55.913 68.744 55.402 C 68.261 55.072 68.264 55.065 69.252 54.154 C 70.446 53.053 70.632 52.045 69.683 51.806 C 69.278 51.705 69.119 51.513 69.119 51.125 C 69.119 50.421 67.721 50.366 66.863 51.038 C 66.196 51.559 65.602 51.612 65.351 51.172 C 65.252 50.998 64.917 50.82 64.607 50.777 C 64.224 50.724 64.02 50.536 63.971 50.192 C 63.888 49.612 63.913 49.602 64.72 49.909 C 65.271 50.119 65.303 50.098 65.161 49.628 C 64.904 48.783 64.928 48.683 65.396 48.608 C 66.658 48.406 67.107 47.495 66.117 47.145 C 65.764 47.02 66.242 46.294 66.763 46.164 C 67.207 46.052 67.251 45.966 67.038 45.625 C 66.838 45.306 66.865 45.137 67.162 44.841 C 67.648 44.355 67.655 43.593 67.173 43.593 C 66.885 43.593 66.836 43.445 66.944 42.905 C 67.096 42.145 67.035 42.153 65.791 43.073 L 65.058 43.615 L 64.304 43.04 C 63.888 42.724 63.285 42.464 62.963 42.464 C 62.641 42.464 62.318 42.368 62.245 42.25 C 62.045 41.926 62.884 41.567 63.478 41.722 C 63.959 41.848 63.99 41.804 63.863 41.166 C 63.719 40.448 63.93 40.139 64.895 39.653 C 65.464 39.367 65.67 38.855 65.218 38.855 C 65.036 38.855 64.767 38.709 64.618 38.529 C 64.47 38.351 64.025 38.173 63.632 38.133 L 62.915 38.063 L 64.043 37.517 C 64.983 37.062 65.087 36.957 64.663 36.883 C 64.125 36.788 63.962 36.396 64.438 36.339 C 64.593 36.321 64.263 36.244 63.705 36.17 C 62.544 36.015 62.397 35.319 63.268 34.095 C 63.869 33.254 63.822 33.137 62.942 33.279 C 62.522 33.347 62.085 33.31 61.97 33.194 C 61.842 33.067 61.51 33.25 61.112 33.664 C 60.177 34.64 59.005 34.524 59.757 33.53 C 60.13 33.037 60.197 32.176 59.877 31.978 C 59.757 31.904 59.714 31.563 59.783 31.219 C 59.866 30.803 59.789 30.496 59.55 30.298 C 59.084 29.912 59.097 29.792 59.675 29.172 C 60.003 28.82 60.075 28.605 59.902 28.497 C 59.736 28.395 59.92 28.068 60.428 27.562 C 61.349 26.647 61.372 26.543 60.749 26.209 C 60.341 25.99 60.191 26.051 59.677 26.645 C 58.91 27.531 57.711 27.882 57.942 27.154 C 58.069 26.753 58.004 26.672 57.554 26.672 C 56.857 26.672 56.636 26.445 57.024 26.13 C 57.548 25.706 57.883 24.416 57.47 24.416 C 57.28 24.416 57.164 24.34 57.211 24.247 C 57.789 23.127 58.06 22.277 57.952 21.935 C 57.826 21.538 58.572 20.581 59.009 20.581 C 59.11 20.581 59.192 20.417 59.192 20.218 C 59.192 19.755 58.165 19.97 57.5 20.572 C 56.203 21.748 54.364 22.264 54.583 21.391 C 54.678 21.009 54.579 20.705 54.249 20.375 C 53.657 19.783 53.647 19.299 54.223 19.117 C 54.468 19.039 54.88 18.706 55.138 18.377 L 55.608 17.78 L 55.088 17.562 C 54.802 17.442 53.908 17.336 53.101 17.327 C 51.81 17.311 51.635 17.258 51.634 16.875 C 51.634 16.608 51.381 16.337 50.977 16.172 L 50.322 15.904 L 51.838 15.4 C 53.177 14.953 53.345 14.835 53.285 14.371 C 53.245 14.076 53.422 13.618 53.688 13.323 C 54.365 12.573 54.495 12.071 54.057 11.904 C 53.809 11.809 53.446 12.026 52.954 12.562 C 51.923 13.689 51.25 13.644 50.767 12.414 C 50.519 11.783 50.47 11.391 50.62 11.241 C 50.952 10.909 50.893 10.429 50.52 10.429 C 49.916 10.429 49.951 10.043 50.672 8.711 L 51.391 7.383 L 50.788 7.778 C 49.86 8.385 49.659 8.286 49.756 7.27 C 49.804 6.774 49.788 6.368 49.722 6.368 C 49.656 6.368 49.638 5.556 49.683 4.563 C 49.738 3.346 49.684 2.759 49.515 2.759 C 49.345 2.759 49.266 3.828 49.266 6.169 L 49.266 6.169 L 49.266 6.169 L 49.266 6.169 L 49.266 6.169 L 49.266 9.579 L 48.702 9.471 C 48.392 9.412 48.138 9.451 48.138 9.557 C 48.138 9.665 48.22 9.752 48.32 9.752 C 49.148 9.752 49.274 10.338 48.63 11.201 C 47.962 12.098 47.944 12.383 48.456 13.982 C 48.577 14.355 48.53 14.489 48.282 14.489 C 48.095 14.489 47.878 14.287 47.8 14.038 C 47.721 13.791 47.517 13.587 47.346 13.587 C 47.175 13.587 46.886 13.374 46.704 13.115 L 46.373 12.641 L 46.123 13.108 C 45.913 13.5 46 13.75 46.667 14.679 C 47.493 15.829 47.678 16.52 47.157 16.52 C 46.818 16.52 46.243 15.923 46.047 15.364 C 45.893 14.926 44.533 14.667 44.387 15.048 C 44.332 15.191 44.442 15.607 44.632 15.971 C 45.412 17.467 44.948 18.429 43.829 17.632 L 43.133 17.137 L 43.433 17.618 C 43.599 17.883 43.814 18.099 43.911 18.099 C 44.009 18.099 44.185 18.354 44.303 18.664 C 44.42 18.973 44.609 19.227 44.722 19.227 C 45.191 19.227 45.478 21.089 45.13 21.878 C 44.855 22.505 44.528 22.539 44.528 21.941 C 44.528 21.63 44.309 21.439 43.795 21.303 C 43.2 21.146 43.063 20.999 43.07 20.516 C 43.078 19.961 43.021 19.928 42.207 20.007 C 41.092 20.113 40.937 20.281 41.553 20.712 C 42.207 21.17 42.227 22.161 41.582 22.161 C 41.327 22.161 41.167 22.241 41.228 22.34 C 41.29 22.439 41.256 22.657 41.152 22.824 C 40.829 23.348 41.335 24.302 42.109 24.623 C 42.661 24.852 42.741 24.949 42.441 25.026 C 41.958 25.149 41.926 25.512 42.385 25.688 C 42.571 25.76 42.724 26.003 42.724 26.229 C 42.724 26.454 42.875 26.672 43.06 26.713 C 43.359 26.777 43.359 26.858 43.06 27.431 C 42.596 28.321 42.622 28.414 43.457 28.839 C 44.421 29.329 44.412 29.315 44.082 29.712 C 43.727 30.141 42.791 30.143 42.047 29.718 C 41.278 29.279 41.086 29.302 41.354 29.802 C 41.972 30.955 42.018 32.054 41.464 32.417 C 40.732 32.896 40.49 32.854 40.241 32.199 C 40.124 31.89 39.948 31.628 39.853 31.618 C 39.25 31.559 38.798 31.403 38.321 31.09 C 37.606 30.622 37.309 30.639 37.309 31.149 C 37.309 31.602 37.974 32.312 38.399 32.312 C 38.544 32.312 38.662 32.414 38.662 32.538 C 38.662 32.662 38.51 32.764 38.325 32.764 C 37.77 32.764 37.941 33.195 38.557 33.349 C 38.973 33.454 39.094 33.601 39.001 33.891 C 38.91 34.177 39.096 34.421 39.659 34.753 C 40.376 35.176 40.433 35.285 40.314 36.015 C 40.199 36.725 40.25 36.839 40.777 37.039 C 41.103 37.163 41.37 37.416 41.37 37.601 C 41.37 37.822 41.499 37.889 41.745 37.795 C 42.042 37.68 42.093 37.752 41.991 38.14 C 41.893 38.515 41.963 38.629 42.293 38.629 C 42.53 38.629 42.724 38.72 42.724 38.83 C 42.724 39.493 38.975 39.171 37.961 38.422 C 37.202 37.86 36.82 37.818 37.012 38.317 C 37.133 38.635 37.004 38.66 35.989 38.521 C 35.28 38.424 34.828 38.446 34.828 38.58 C 34.828 38.7 34.532 38.858 34.169 38.93 C 33.413 39.081 33.424 39.953 34.185 40.152 C 34.468 40.226 34.602 40.469 34.602 40.91 C 34.602 41.325 34.77 41.66 35.071 41.843 C 36.717 42.835 36.416 45.148 34.746 44.352 C 33.996 43.994 33.919 43.996 33.319 44.389 L 32.684 44.805 L 33.396 44.989 C 33.948 45.132 34.082 45.27 33.995 45.605 C 33.894 45.992 33.978 46.025 34.811 45.912 C 35.828 45.776 35.987 46.413 34.978 46.579 C 34.562 46.648 34.613 46.714 35.317 47.025 C 35.773 47.226 36.326 47.678 36.546 48.029 C 36.766 48.381 36.975 48.708 37.01 48.758 C 37.045 48.806 37.23 48.715 37.424 48.555 C 37.901 48.158 38.952 48.619 38.846 49.179 C 38.737 49.755 37.418 49.804 36.193 49.278 C 35.265 48.879 32.466 48.104 31.952 48.104 C 31.651 48.104 31.768 49.077 32.082 49.182 C 32.227 49.23 32.345 49.503 32.345 49.788 C 32.345 50.396 32.678 50.717 33.532 50.931 C 33.872 51.017 34.151 51.228 34.151 51.4 C 34.151 51.778 34.237 51.779 33.135 51.382 C 32.157 51.03 30.09 50.922 30.09 51.224 C 30.09 51.326 30.344 51.649 30.654 51.94 C 30.964 52.231 31.218 52.649 31.218 52.868 C 31.218 53.088 31.331 53.336 31.47 53.422 C 31.621 53.516 31.678 53.962 31.612 54.542 L 31.503 55.508 L 32.537 55.797 L 33.571 56.086 L 32.902 56.371 L 32.233 56.658 L 33.207 56.668 C 34.34 56.679 35.053 56.998 35.053 57.495 C 35.053 57.913 32.879 57.833 31.262 57.354 C 30.491 57.126 30.166 57.124 29.683 57.345 L 29.076 57.621 L 29.569 58.021 C 29.924 58.308 29.993 58.489 29.818 58.664 C 29.641 58.841 29.798 59.043 30.377 59.385 C 30.83 59.652 31.283 60.15 31.414 60.525 C 31.573 60.982 31.797 61.19 32.129 61.19 C 32.414 61.19 32.659 61.365 32.725 61.616 C 32.814 61.957 33.13 62.075 34.284 62.199 C 37.441 62.536 35.078 63.896 31.333 63.896 C 29.803 63.896 28.962 63.982 28.962 64.137 C 28.962 64.272 29.152 64.318 29.394 64.241 C 29.956 64.063 30.266 64.564 29.803 64.902 C 29.414 65.187 29.94 65.702 30.619 65.702 C 30.79 65.702 31.282 65.941 31.714 66.234 C 32.145 66.527 33.184 66.903 34.023 67.07 C 37.275 67.716 34.337 67.92 29.924 67.355 C 28.283 67.145 26.868 67.043 26.782 67.13 C 26.591 67.32 27.91 68.743 28.849 69.359 L 29.525 69.805 L 27.98 69.677 L 26.433 69.55 L 26.765 70.05 C 26.946 70.327 27.316 70.585 27.584 70.625 C 27.958 70.681 28.057 70.832 28.008 71.276 C 27.956 71.769 28.084 71.905 28.885 72.201 C 29.784 72.534 29.818 72.581 29.696 73.33 L 29.569 74.112 L 30.337 73.979 C 33.481 73.435 33.845 73.54 32.459 74.598 C 31.708 75.17 31.607 75.188 30.387 74.963 C 29.681 74.832 28.781 74.726 28.386 74.726 C 27.991 74.726 26.976 74.372 26.131 73.939 C 24.225 72.962 24.143 73.037 25.358 74.647 C 25.892 75.355 26.329 76.068 26.329 76.232 C 26.329 76.396 26.497 76.53 26.701 76.53 C 26.905 76.53 27.354 76.824 27.697 77.183 C 28.041 77.542 28.618 77.894 28.981 77.967 C 30.304 78.232 29.847 79.012 28.455 78.866 C 26.895 78.702 25.577 78.364 25.577 78.13 C 25.577 78.026 25.185 77.952 24.704 77.965 C 24.083 77.981 23.489 77.775 22.645 77.251 C 21.993 76.845 21.412 76.56 21.355 76.618 C 21.148 76.824 21.57 77.704 22.245 78.473 C 22.863 79.175 22.907 79.318 22.665 79.848 C 22.401 80.428 22.596 80.803 23.168 80.814 C 23.269 80.816 23.288 81.02 23.209 81.268 C 23.099 81.614 23.168 81.72 23.508 81.72 C 23.751 81.72 24.008 81.87 24.078 82.054 C 24.235 82.461 26.895 83.75 27.578 83.75 C 27.994 83.75 28.046 83.839 27.921 84.338 C 27.782 84.885 27.807 84.908 28.263 84.664 C 28.532 84.52 28.944 84.462 29.177 84.536 C 29.463 84.627 29.717 84.503 29.962 84.155 L 30.323 83.639 L 31.037 84.403 C 31.725 85.14 31.762 85.151 32.107 84.74 C 32.941 83.745 33.204 83.66 33.766 84.2 C 34.864 85.257 36.222 85.421 37.316 84.629 C 37.58 84.437 37.901 84.49 38.673 84.854 L 39.685 85.329 L 40.922 84.85 C 42.801 84.122 43.572 84.055 43.663 84.611 C 43.734 85.042 43.787 85.049 44.642 84.75 C 45.765 84.356 47.395 84.337 48.231 84.709 L 48.865 84.991 L 48.73 87.789 C 48.656 89.328 48.534 99.895 48.46 99.969 C 48.355 100.075 52.05 99.893 51.921 99.694 Z " fill="rgb(51,51,51)"/></svg>